<svg width="114" height="40" viewBox="0 0 114 40" fill="none" xmlns="http://www.w3.org/2000/svg">
<g id="Alfa-Bank 1" clip-path="url(#clip0_149_12855)">
<g id="layer1">
<g id="g124">
<g id="Clip path group">
<mask id="mask0_149_12855" style="mask-type:luminance" maskUnits="userSpaceOnUse" x="0" y="-14" width="131" height="54">
<g id="clipPath128">
<path id="path130" d="M0.119507 40H130.356V-13.3125H0.119507V40Z" fill="white"/>
</g>
</mask>
<g mask="url(#mask0_149_12855)">
<g id="g126">
<g id="g132">
<path id="path134" d="M12.9624 0.000152588C15.6845 0.000152588 16.5399 1.95259 17.2575 3.90196C17.5589 4.72976 24.6327 24.1011 24.8454 24.6826C24.902 24.8447 24.8637 25.111 24.6143 25.2074C24.3634 25.3023 20.688 26.7314 20.4845 26.8079C20.281 26.8859 20.053 26.7727 19.9796 26.5692C19.9031 26.3688 18.3775 22.1456 18.2062 21.6743H7.72176C7.55651 22.1456 6.01262 26.3779 5.94376 26.5692C5.87338 26.7635 5.65457 26.8951 5.43729 26.8079C5.22001 26.7222 1.53089 25.2931 1.31055 25.2074C1.0994 25.1248 1.003 24.8845 1.07644 24.6826C1.33656 23.9573 8.30321 4.89654 8.6582 3.90196C9.34982 1.98166 10.2342 0.000152588 12.9624 0.000152588ZM0.516419 34.662C0.296081 34.662 0.120117 34.8456 0.120117 35.069V39.5967C0.120117 39.8201 0.296081 40.0006 0.516419 40.0006H25.3977C25.6227 40.0006 25.7986 39.8201 25.7986 39.5967V35.069C25.7986 34.8456 25.6227 34.662 25.3977 34.662H0.516419ZM12.938 6.32568L9.39419 16.9677H16.5399L12.9839 6.32568H12.938ZM66.1143 23.7752C65.5925 23.9512 65.2482 23.994 64.8382 23.994C63.9905 23.994 63.5207 23.6589 63.5207 22.7898C63.5207 21.884 64.1175 21.581 65.2896 21.581C65.5757 21.581 65.8572 21.6223 65.9888 21.6682V22.317C65.9888 23.0163 66.0271 23.4753 66.1143 23.7752ZM69.1271 24.8126C68.5013 23.8624 68.3376 23.3024 68.3376 22.1043V19.6714C68.3376 18.3616 68.1845 17.8888 67.8387 17.4114C67.3568 16.7351 66.5534 16.4413 65.0769 16.4413C64.0318 16.4413 63.0173 16.5545 62.035 16.8055L62.39 18.5345C63.0541 18.4412 63.7503 18.3616 64.2414 18.3616C65.8098 18.3616 65.9888 18.5881 65.9888 19.7647V20.2039C65.64 20.1106 65.2482 20.0432 64.7938 20.0432C62.4328 20.0432 61.1858 21.1985 61.1858 23.1111C61.1858 24.9044 62.5185 25.8822 64.142 25.8822C64.7479 25.8822 65.3814 25.7705 65.8832 25.5654C66.1862 25.4338 66.3178 25.3558 66.7095 25.1018C66.9451 25.4446 67.418 25.795 67.6108 25.8607L69.1271 24.8126ZM92.4814 23.7752C91.9565 23.9512 91.6184 23.994 91.2052 23.994C90.3545 23.994 89.8786 23.6589 89.8786 22.7898C89.8786 21.884 90.483 21.581 91.6582 21.581C91.9443 21.581 92.2274 21.6223 92.3559 21.6682V22.317C92.3559 23.0163 92.3926 23.4753 92.4814 23.7752ZM95.4972 24.8126C94.8668 23.8624 94.7062 23.3024 94.7062 22.1043V19.6714C94.7062 18.3616 94.5501 17.8888 94.2012 17.4114C93.7254 16.7351 92.9205 16.4413 91.4394 16.4413C90.3958 16.4413 89.3752 16.5545 88.3929 16.8055L88.7433 18.5345C89.4089 18.4412 90.1066 18.3616 90.6116 18.3616C92.1708 18.3616 92.3559 18.5881 92.3559 19.7647V20.2039C92.007 20.1106 91.6184 20.0432 91.1548 20.0432C88.7907 20.0432 87.5391 21.1985 87.5391 23.1111C87.5391 24.9044 88.8749 25.8822 90.506 25.8822C91.1196 25.8822 91.7469 25.7705 92.2442 25.5654C92.5518 25.4338 92.6788 25.3558 93.0705 25.1018C93.3092 25.4446 93.782 25.795 93.9763 25.8607L95.4972 24.8126ZM113.88 25.6787C113.88 25.6787 112.586 22.9199 112.269 22.2925C111.912 21.5856 111.582 21.0975 110.854 20.9215V20.8817C111.342 20.7884 111.73 20.4931 112.156 19.5903C112.558 18.7105 112.677 18.5208 112.915 18.3111C113.147 18.103 113.465 18.178 113.465 18.178L113.585 16.5515C113.247 16.5056 112.872 16.5041 112.485 16.5255C111.842 16.5637 111.51 16.7489 111.193 17.0671C110.945 17.3104 110.777 17.6746 110.569 18.0923C110.349 18.5483 110.174 18.9155 109.945 19.3792C109.717 19.855 109.61 20.0692 108.996 20.0692H108.597V12.8639H106.233V25.6787H108.597V21.9941L108.919 21.988C109.597 21.988 109.717 22.1579 110.075 22.8724C110.494 23.7247 111.297 25.6787 111.297 25.6787H113.88ZM47.2831 25.6787H50.0113L45.8845 13.0781C45.45 12.9327 44.9129 12.8425 44.3391 12.8425C43.7133 12.8425 43.4899 12.9251 43.0003 13.0781L38.6333 25.6787H41.2513C41.2513 25.6787 41.6048 24.5739 42.021 23.2045H46.544C46.948 24.5724 47.2831 25.6787 47.2831 25.6787ZM42.6851 21.0914C42.6851 21.0914 43.4409 18.5621 43.5588 18.1688C43.8587 17.1498 44.3146 15.5309 44.3146 15.5309H44.3896C44.3896 15.5309 44.8119 17.2079 45.0874 18.1505C45.1914 18.5253 45.9136 21.0914 45.9136 21.0914H42.6851ZM73.1544 19.65C72.3205 19.65 71.6426 20.3309 71.6426 21.1648C71.6426 22.0048 72.3205 22.6812 73.1544 22.6812C73.9898 22.6812 74.6646 22.0048 74.6646 21.1648C74.6646 20.3309 73.9898 19.65 73.1544 19.65ZM53.2506 12.8639H50.8804V25.6771H53.2506V12.8639ZM100.34 18.4779C101.65 18.5055 101.812 18.7763 101.812 19.8749V25.6787H104.161V19.6714C104.161 18.3616 104.008 17.8888 103.659 17.4114C103.177 16.7351 102.23 16.4413 100.628 16.4413C99.0425 16.4413 98.0326 16.6096 96.7336 16.9968V25.6787H99.1068V18.5881C99.7296 18.4978 99.8397 18.4779 100.34 18.4779ZM59.1125 12.6359C57.6313 12.6359 56.8249 12.9297 56.3506 13.6045C56.0017 14.0834 55.8472 14.5669 55.8472 15.8798V16.9968H54.6705V18.9125H55.8472V25.6787H58.1974L58.1913 18.9125H60.5339V16.9968H58.1913L58.1974 15.97C58.1974 14.7949 58.3765 14.5669 59.9464 14.5669C60.1162 14.5669 60.3075 14.5761 60.511 14.5914L60.8813 12.7507C60.3014 12.6742 59.7077 12.6359 59.1125 12.6359ZM77.9697 12.7553C78.7761 12.7078 80.5785 12.6405 81.7093 12.6405C81.9159 12.6405 82.1301 12.642 82.3443 12.6527C84.5676 12.6527 85.8422 14.2716 85.8422 16.172C85.8422 17.465 85.25 18.3234 83.8622 18.8344C85.4948 19.1955 86.3502 20.4701 86.3502 22.0293C86.3502 23.1739 86.0273 24.0827 85.4351 24.7024C84.667 25.4583 83.5041 25.8822 81.9557 25.8822C80.5785 25.8822 78.8495 25.8393 77.9697 25.7873V12.7553ZM81.7093 14.8546C81.3176 14.8546 80.8325 14.8622 80.3521 14.8791V17.9561H81.7108C82.2494 17.9561 82.6825 17.8062 82.9778 17.517C83.2593 17.2446 83.4062 16.859 83.4062 16.4015C83.4062 15.4177 82.8737 14.8607 81.8837 14.8546H81.7093ZM81.7583 23.6727H81.8608C83.0956 23.6727 83.8515 23.0163 83.8606 21.6942C83.8484 21.2199 83.6663 20.7823 83.3404 20.4655C82.9839 20.1075 82.479 19.9208 81.8868 19.9208H80.3521V23.6589C80.7851 23.6681 81.2625 23.6696 81.7583 23.6727Z" fill="#EE2A23"/>
</g>
</g>
</g>
</g>
</g>
</g>
</g>
<defs>
<clipPath id="clip0_149_12855">
<rect width="113.76" height="40" fill="white" transform="translate(0.119995)"/>
</clipPath>
</defs>
</svg>
