<svg width="262" height="70" viewBox="0 0 262 70" fill="none" xmlns="http://www.w3.org/2000/svg">
<g clip-path="url(#clip0_268_4032)">
<path d="M61.1676 68.6981C60.6793 68.7001 60.1947 68.6123 59.7377 68.4392C59.308 68.2836 58.9158 68.0385 58.5867 67.72C58.261 67.4057 58.0009 67.0292 57.8218 66.6124C57.4597 65.7154 57.4597 64.7117 57.8218 63.8147C57.999 63.3969 58.2593 63.02 58.5867 62.7071C58.9256 62.3942 59.3212 62.15 59.752 61.9879C60.21 61.8194 60.6942 61.7341 61.1819 61.7362C61.7234 61.7288 62.2608 61.8315 62.7618 62.0383C63.2242 62.233 63.6317 62.5393 63.9485 62.9301L62.9477 63.8579C62.7395 63.6046 62.4783 63.4008 62.1827 63.2609C61.8918 63.1247 61.5742 63.0559 61.2533 63.0595C60.9598 63.0552 60.6683 63.1089 60.3955 63.2178C60.1274 63.3115 59.8832 63.4638 59.6805 63.6637C59.4918 63.8616 59.3414 64.0934 59.2373 64.3469C59.1291 64.6264 59.0756 64.9244 59.08 65.2244C59.0744 65.5244 59.1278 65.8226 59.2373 66.1018C59.3364 66.3686 59.4871 66.613 59.6805 66.821C59.8853 67.0182 60.1288 67.1701 60.3955 67.2669C60.6683 67.3757 60.9598 67.4295 61.2533 67.4251C61.5752 67.4304 61.8937 67.3589 62.1827 67.2165C62.4752 67.0717 62.7355 66.8686 62.9477 66.6196L63.9485 67.5402C63.632 67.933 63.2245 68.2416 62.7618 68.4392C62.254 68.6359 61.7111 68.7241 61.1676 68.6981Z" fill="white"/>
<path d="M66.3363 68.5834V62.7075L66.6938 63.0743H64.1988V61.8013H70.0253V63.0743H67.5302L67.8734 62.7075V68.5546L66.3363 68.5834Z" fill="white"/>
<path d="M70.9975 68.5834V61.8301H73.9072C74.4391 61.8181 74.9676 61.9186 75.4586 62.1249C75.8703 62.2984 76.2212 62.5913 76.4666 62.9664C76.7008 63.361 76.8245 63.8121 76.8245 64.2717C76.8245 64.7314 76.7008 65.1825 76.4666 65.5771C76.2212 65.9522 75.8703 66.2451 75.4586 66.4186C74.9693 66.631 74.44 66.7341 73.9072 66.7206H71.8554L72.5703 66.0014V68.569L70.9975 68.5834ZM72.5632 66.1884L71.8483 65.4692H73.8143C74.1969 65.4975 74.577 65.3879 74.8866 65.16C75.009 65.0522 75.1055 64.9179 75.1686 64.7671C75.2318 64.6163 75.26 64.4531 75.2512 64.2897C75.2606 64.1274 75.2325 63.965 75.1693 63.8153C75.106 63.6656 75.0093 63.5326 74.8866 63.4267C74.5747 63.2041 74.1957 63.0974 73.8143 63.1246H71.8483L72.5632 62.4054V66.1884Z" fill="white"/>
<path d="M81.1564 68.6984C80.6562 68.7039 80.1593 68.6162 79.6908 68.4395C79.257 68.2792 78.8587 68.0349 78.5184 67.7203C78.1905 67.4063 77.928 67.0298 77.7463 66.6127C77.5632 66.1708 77.4708 65.6962 77.4746 65.2174C77.47 64.7409 77.5624 64.2685 77.7463 63.8294C77.928 63.4123 78.1905 63.0358 78.5184 62.7218C78.8572 62.4089 79.2529 62.1647 79.6837 62.0026C80.1407 61.8296 80.6252 61.7419 81.1135 61.7437C81.6011 61.7427 82.0851 61.8279 82.5433 61.9954C82.975 62.1557 83.371 62.4001 83.7086 62.7146C84.0425 63.0233 84.3059 63.4012 84.4807 63.8222C84.8431 64.7166 84.8431 65.7182 84.4807 66.6127C84.306 67.0358 84.0427 67.416 83.7086 67.7275C83.3732 68.0448 82.9766 68.2896 82.5433 68.4467C82.0995 68.6126 81.6299 68.6978 81.1564 68.6984ZM81.1564 67.375C81.4338 67.3812 81.7094 67.3302 81.9664 67.2251C82.2234 67.1199 82.4562 66.9629 82.6506 66.7637C82.8441 66.5696 82.9951 66.3368 83.0938 66.0805C83.3032 65.517 83.3032 64.8963 83.0938 64.3328C82.9951 64.0765 82.8441 63.8437 82.6506 63.6496C82.4618 63.4547 82.2356 63.3006 81.9857 63.1965C81.7224 63.089 81.4405 63.0352 81.1564 63.0382C80.8699 63.0342 80.5855 63.088 80.32 63.1965C80.0682 63.297 79.8413 63.4516 79.6551 63.6496C79.4639 63.8456 79.3133 64.0778 79.2118 64.3328C79.0025 64.8963 79.0025 65.517 79.2118 66.0805C79.3133 66.3354 79.4639 66.5677 79.6551 66.7637C79.8431 66.9595 80.0695 67.1138 80.32 67.2168C80.5832 67.3243 80.8651 67.3781 81.1493 67.375H81.1564Z" fill="white"/>
<path d="M86.0178 68.5834V61.8301H87.5548V66.2388L90.7648 61.8301H92.1946V68.5834H90.6575V64.1963L87.4547 68.5834H86.0178Z" fill="white"/>
<path d="M95.3402 68.5834V62.7075L95.6976 63.0743H93.2026V61.8013H99.0219V63.0743H96.5269L96.8772 62.7075V68.5546L95.3402 68.5834Z" fill="white"/>
<path d="M101.546 67.3248H105.177V68.5834H99.9799V61.8301H105.049V63.0815H101.524L101.546 67.3248ZM101.431 64.5415H104.663V65.7641H101.431V64.5415Z" fill="white"/>
<path d="M106.521 68.6908C106.398 68.6977 106.273 68.6977 106.15 68.6908L105.756 68.6117L105.849 67.2884C105.937 67.3144 106.029 67.3266 106.121 67.3243C106.242 67.3281 106.361 67.3011 106.469 67.2457C106.576 67.1904 106.668 67.1086 106.736 67.0079C106.906 66.7226 107.014 66.4037 107.05 66.0729C107.128 65.585 107.173 65.0925 107.186 64.5986L107.279 61.8584H112.441V68.6117H110.897V62.7718L111.254 63.1314H108.287L108.609 62.7646L108.545 64.541C108.532 65.1326 108.489 65.7231 108.416 66.3103C108.361 66.7595 108.248 67.1996 108.08 67.6192C107.957 67.9421 107.749 68.2254 107.479 68.4391C107.195 68.6246 106.859 68.7129 106.521 68.6908Z" fill="white"/>
<path d="M117.381 64.0596C118.046 64.0204 118.704 64.2107 119.247 64.599C119.476 64.8008 119.655 65.0533 119.77 65.3366C119.885 65.6199 119.934 65.9263 119.912 66.2316C119.933 66.5596 119.88 66.8881 119.756 67.1923C119.632 67.4964 119.441 67.768 119.197 67.9865C118.608 68.4147 117.891 68.6256 117.166 68.5834H114.114V61.8301H115.651V64.0596H117.381ZM117.052 67.4255C117.395 67.4475 117.734 67.3398 118.003 67.1234C118.119 67.0138 118.211 66.8796 118.27 66.7304C118.329 66.5812 118.355 66.4208 118.346 66.2604C118.36 66.107 118.336 65.9525 118.276 65.8107C118.216 65.6689 118.122 65.5442 118.003 65.4477C117.72 65.2646 117.387 65.1765 117.052 65.1959H115.622V67.4255H117.052Z" fill="white"/>
<path d="M122.592 68.5834H121.034V61.8301H122.592V68.5834ZM125.752 65.8145H122.471V64.4911H125.752V65.8145ZM125.638 61.8301H127.189V68.5834H125.638V61.8301Z" fill="white"/>
<path d="M128.097 68.5834L131.078 61.8301H132.615L135.625 68.5834H133.995L131.536 62.6212H132.158L129.692 68.5834H128.097ZM129.606 67.145L129.999 65.9583H133.473L133.874 67.145H129.606Z" fill="white"/>
<path d="M140.022 68.583V66.4254L140.394 66.7634H138.556C138.038 66.7794 137.523 66.6786 137.048 66.4685C136.65 66.295 136.313 66.0041 136.083 65.6342C135.852 65.2381 135.738 64.7841 135.754 64.3253C135.739 63.8501 135.861 63.3807 136.104 62.9732C136.35 62.5935 136.7 62.2938 137.112 62.1102C137.597 61.8991 138.121 61.796 138.649 61.8081H141.552V68.5614L140.022 68.583ZM135.732 68.583L137.405 66.1521H138.964L137.377 68.583H135.732ZM140.022 65.9579V62.7071L140.394 63.1098H138.678C138.315 63.08 137.955 63.1906 137.67 63.4191C137.55 63.537 137.457 63.6798 137.398 63.8376C137.339 63.9954 137.314 64.1643 137.327 64.3325C137.316 64.4988 137.34 64.6656 137.398 64.8218C137.456 64.978 137.546 65.1201 137.663 65.2387C137.942 65.4619 138.294 65.5722 138.649 65.5479H140.394L140.022 65.9579Z" fill="white"/>
<path d="M145.927 68.5834V61.8301H147.464V66.2388L150.674 61.8301H152.104V68.5834H150.574V64.1963L147.371 68.5834H145.927Z" fill="white"/>
<path d="M155.371 68.5834H153.791V61.8301H155.35L155.371 68.5834ZM158.531 65.8145H155.221V64.4911H158.502L158.531 65.8145ZM158.417 61.8301H159.968V68.5834H158.417V61.8301Z" fill="white"/>
<path d="M160.94 69.9928V67.3101H168.547V69.9928H167.117V68.5544H162.37V69.9928H160.94ZM166.066 67.8783V63.1028H163.778L163.735 64.0881C163.735 64.5053 163.693 64.9008 163.657 65.2748C163.628 65.6185 163.575 65.9597 163.499 66.296C163.443 66.5635 163.352 66.8223 163.228 67.0656C163.143 67.2606 162.994 67.4204 162.806 67.5187L161.147 67.3101C161.255 67.3153 161.362 67.296 161.461 67.2537C161.56 67.2113 161.648 67.147 161.719 67.0656C161.892 66.8569 162.015 66.6107 162.077 66.3464C162.177 65.9963 162.244 65.6375 162.277 65.2748C162.32 64.8648 162.348 64.4189 162.37 63.9299L162.456 61.8154H167.603V67.8639L166.066 67.8783Z" fill="white"/>
<path d="M171.85 67.5118L168.818 61.8301H170.477L172.7 66.3539L171.85 67.5118ZM169.805 67.3104C170.104 67.4099 170.422 67.4418 170.734 67.4039C170.884 67.3693 171.026 67.3034 171.149 67.2104C171.272 67.1175 171.374 66.9997 171.449 66.8645L171.771 66.361L171.907 66.2172L174.123 61.8301H175.66L172.8 67.1666C172.588 67.604 172.277 67.9857 171.893 68.2813C171.56 68.5327 171.163 68.6847 170.749 68.72C170.306 68.7518 169.862 68.6753 169.455 68.4971L169.805 67.3104Z" fill="white"/>
<path d="M179.463 68.6982C178.975 68.7008 178.49 68.613 178.034 68.4393C177.604 68.2837 177.212 68.0386 176.883 67.7201C176.555 67.4078 176.294 67.0307 176.118 66.6125C175.756 65.7155 175.756 64.7118 176.118 63.8148C176.292 63.3956 176.553 63.0181 176.883 62.7072C177.219 62.3911 177.615 62.1465 178.048 61.988C178.506 61.8193 178.99 61.7341 179.478 61.7363C180.022 61.7281 180.561 61.8308 181.065 62.0384C181.526 62.2351 181.933 62.5411 182.252 62.9302L181.244 63.858C181.038 63.605 180.779 63.4011 180.486 63.261C180.195 63.1248 179.877 63.056 179.556 63.0596C179.263 63.0545 178.971 63.1083 178.698 63.2179C178.43 63.3116 178.186 63.4639 177.984 63.6638C177.792 63.8598 177.642 64.092 177.54 64.347C177.432 64.6265 177.379 64.9245 177.383 65.2244C177.377 65.5245 177.431 65.8227 177.54 66.1019C177.638 66.3609 177.789 66.5962 177.984 66.7921C178.178 66.988 178.412 67.14 178.67 67.2382C178.943 67.3478 179.234 67.4016 179.528 67.3964C179.85 67.4017 180.168 67.3303 180.457 67.1879C180.747 67.0429 181.005 66.8397 181.215 66.5909L182.223 67.5115C181.905 67.9028 181.498 68.2112 181.036 68.4105C180.537 68.6135 180.002 68.7114 179.463 68.6982Z" fill="white"/>
<path d="M184.632 68.5834V62.7075L184.99 63.0743H182.495V61.8013H188.314V63.0743H185.826L186.169 62.7075V68.5546L184.632 68.5834Z" fill="white"/>
<path d="M189.293 68.5834V61.8301H192.203C192.735 61.8181 193.263 61.9186 193.754 62.1249C194.166 62.2984 194.517 62.5913 194.762 62.9664C194.992 63.3628 195.112 63.8132 195.112 64.2717C195.112 64.7303 194.992 65.1807 194.762 65.5771C194.517 65.9522 194.166 66.2451 193.754 66.4186C193.265 66.631 192.736 66.7341 192.203 66.7206H190.151L190.866 66.0014V68.569L189.293 68.5834ZM190.859 66.1884L190.144 65.4692H192.11C192.493 65.4975 192.873 65.3879 193.182 65.16C193.305 65.0522 193.401 64.9179 193.464 64.7671C193.528 64.6163 193.556 64.4531 193.547 64.2897C193.556 64.1274 193.528 63.965 193.465 63.8153C193.402 63.6656 193.305 63.5326 193.182 63.4267C192.871 63.2041 192.492 63.0974 192.11 63.1246H190.144L190.859 62.4054V66.1884Z" fill="white"/>
<path d="M196.142 68.5834V61.8301H197.679V66.2388L200.889 61.8301H202.319V68.5834H200.782V64.1963L197.579 68.5834H196.142Z" fill="white"/>
<path d="M207.852 68.583V66.4254L208.224 66.7634H206.387C205.869 66.7794 205.353 66.6786 204.878 66.4685C204.48 66.295 204.144 66.0041 203.913 65.6342C203.683 65.2381 203.569 64.7841 203.584 64.3253C203.572 63.8494 203.696 63.3801 203.942 62.9732C204.185 62.5938 204.533 62.2939 204.943 62.1102C205.427 61.8991 205.952 61.796 206.48 61.8081H209.389V68.5614L207.852 68.583ZM203.563 68.583L205.236 66.1521H206.794L205.264 68.583H203.563ZM207.852 65.9579V62.7071L208.224 63.1098H206.508C206.146 63.08 205.785 63.1906 205.5 63.4191C205.28 63.6702 205.158 63.9938 205.158 64.3289C205.158 64.664 205.28 64.9876 205.5 65.2387C205.776 65.464 206.126 65.5747 206.48 65.5479H208.224L207.852 65.9579Z" fill="white"/>
<path d="M242.232 49.8983H262.493L202.87 14.9307L178.656 29.2068L127.054 0L79.7123 26.7472L59.6234 14.9091L0 49.8767H20.2676V61.5566H6.6844V64.5125H25.5937L25.2577 47.0574H16.0068L59.5447 20.7922L101.724 45.8204H96.3839V54.6522H166.109V45.8204H160.811L202.948 20.7922L246.493 47.0574H237.242L236.906 64.5125H255.816V61.5566H242.232V49.8983ZM148.172 47.1725L161.405 47.4314V51.5596H101.095V47.4314L114.328 47.1725L84.445 29.5664L127.032 5.47313L173.909 31.9973L148.172 47.1725Z" fill="white"/>
<path d="M165.315 45.166L202.934 23.0073L240.867 45.166H236.349L203.091 25.5677L169.626 45.166H165.315Z" fill="white"/>
<path d="M171.449 32.623L168.868 34.1333L127.068 10.0975L89.4493 31.2924L87.0258 29.9116L127.118 7.40771L171.449 32.623Z" fill="white"/>
<path d="M97.1846 45.166L59.5661 23.0073L21.6331 45.166H26.1585L59.4089 25.5677L92.8737 45.166H97.1846Z" fill="white"/>
</g>
<defs>
<clipPath id="clip0_268_4032">
<rect width="262" height="70" fill="white"/>
</clipPath>
</defs>
</svg>
