<svg width="190" height="40" viewBox="0 0 190 40" fill="none" xmlns="http://www.w3.org/2000/svg">
<g id="Gazprombank 1" clip-path="url(#clip0_149_12839)">
<g id="g931">
<path id="path883" fill-rule="evenodd" clip-rule="evenodd" d="M0.241577 20C0.241577 31.0409 9.20068 40 20.2416 40C31.2825 40 40.2416 31.0409 40.2416 20C40.2416 8.95911 31.2825 0 20.2416 0C9.20068 0 0.241577 8.95911 0.241577 20ZM0.947897 20C0.947897 9.33085 9.60961 0.669145 20.2788 0.669145C30.9479 0.669145 39.6096 9.33085 39.6096 20C39.6096 30.632 30.9479 39.2937 20.2788 39.2937C9.60961 39.3309 0.947897 30.6691 0.947897 20Z" fill="#00487C"/>
<path id="path885" fill-rule="evenodd" clip-rule="evenodd" d="M6.4869 14.5353C11.617 11.1896 17.2676 9.21934 26.8586 10.8922C27.3791 10.5948 27.6765 10.2974 27.8252 9.66544C25.446 8.81042 22.8438 8.51302 19.4981 8.5502C16.4869 8.62454 11.0594 9.73979 8.15977 11.4498L9.05196 10.3346C11.0966 9.14499 16.3754 7.58365 20.3159 7.47213C23.104 7.43495 24.5538 7.58365 27.8624 8.47585C27.565 7.91822 26.8958 7.62083 25.8921 7.17473C22.6951 5.72492 16.6728 5.61339 11.7657 7.76953C12.3977 7.3606 12.9925 6.98886 13.8103 6.61711C15.446 5.87361 18.0854 5.16729 21.394 5.20447C24.0334 5.24164 27.1932 6.17101 29.1263 8.06692C29.4609 8.43867 29.6468 8.84759 29.7211 9.18217C31.2453 9.96284 32.1375 10.6692 32.6207 11.5242C32.8066 11.9703 32.9181 12.4535 32.8066 12.974C33.4386 13.3457 33.736 13.6803 34.0705 14.0892C34.2936 14.4238 34.4795 14.8327 34.5166 15.2045C34.591 15.6877 34.6282 16.2082 34.1449 16.8402C34.6653 17.1004 35.0743 17.8067 35.1486 18.1413C35.3717 19.2937 34.6653 20.4089 33.6616 21.3011C32.5464 22.3048 30.0557 23.4573 28.0482 23.9777C24.0334 24.9814 20.5018 25.4275 17.6765 25.948C18.9404 26.2454 20.6505 26.6543 23.4757 26.6543C29.4609 26.6543 34.7397 23.829 34.7397 23.829C34.7397 23.829 34.6282 24.2008 34.5166 24.5353C30.7248 26.8402 24.6653 27.8067 22.1003 27.6952C19.4609 27.5837 17.2676 27.1747 15.1114 26.5056C14.4423 26.6915 13.8103 26.8773 13.1784 27.1747C16.4497 28.6617 18.9404 28.9963 21.7657 29.2193C24.6282 29.4424 29.3494 28.7361 33.3642 27.2863C33.1783 27.4721 33.104 27.7695 32.9181 27.9182C30.8735 28.9963 26.5241 30.0744 24.3679 30.1487C22.2118 30.2231 19.5724 30.1487 17.2676 29.7398C15.2973 29.368 13.6616 28.7361 11.9888 27.9926C11.6914 28.2156 11.5427 28.513 11.4683 28.8476C17.8995 32.2677 24.0705 32.342 31.0966 30.1487L30.4646 30.7807C22.7323 33.9034 16.71 32.6766 12.0259 30.4461C11.8772 30.3718 11.6914 30.2974 11.5427 30.2231C11.9888 30.9666 15.5575 33.5688 19.5352 33.9034C22.2862 34.1264 25.6319 33.6431 27.6393 32.8625L26.4497 33.4573C25.4832 33.9405 22.9181 35.0186 19.3494 34.7584C14.591 34.4238 11.9144 32.342 10.6876 31.2268C10.13 30.7063 9.8698 30.1115 9.68393 29.368C8.60586 28.8104 7.93672 28.2156 7.3791 27.3606C7.04453 26.8402 7.11888 26.2825 7.19322 25.7993L7.30475 25.3532C6.7843 24.9814 6.26386 24.5725 6.04081 24.1636C5.55754 23.3086 5.85493 22.6022 6.18951 22.0074C5.89211 21.6729 5.63189 21.3755 5.52036 21.0409C5.40884 20.632 5.37166 20.2602 5.40884 19.8513C5.48319 19.145 5.89211 18.4758 6.37538 17.9182C7.41627 16.7286 9.05196 15.7993 11.8772 14.8699C14.6282 13.9777 15.7062 13.829 17.788 13.3457C20.2044 12.7881 23.104 12.6022 25.5204 11.7472C18.7917 10.5576 11.7657 11.6357 6.07798 15.5762L6.4869 14.5353ZM29.4237 10.3718C29.3494 10.7063 28.9776 11.0781 28.7546 11.3383C29.4981 11.5242 30.2415 11.7844 30.9479 12.0818C30.8363 11.4126 30.0928 10.7807 29.4237 10.3718ZM8.68021 23.829C8.23412 23.5688 7.93672 23.4201 7.60215 23.1599C7.41627 23.5688 7.78802 24.0521 8.15977 24.2751C8.30847 24.1264 8.49434 23.9777 8.68021 23.829ZM31.394 15.0186C31.8772 15.2416 32.3233 15.4275 32.7323 15.7249C33.0296 15.1301 32.8438 14.7584 32.2118 14.2379C31.9888 14.5353 31.6914 14.7956 31.394 15.0186ZM29.9441 15.9108C28.9776 16.3569 27.5278 16.8402 25.5204 17.3606C23.8847 17.7695 19.8326 18.3643 15.4832 19.2937C14.1077 19.5911 10.3902 20.4833 8.56869 22.0074C9.08913 22.4164 9.38653 22.5279 9.98133 22.8253C10.7248 22.342 11.7657 21.8959 13.2899 21.487C15.9665 20.7807 17.9367 20.4833 20.3531 20.0744C22.7323 19.7026 27.1932 18.7732 29.6839 17.8811C30.5018 17.5837 31.2453 17.2119 31.8029 16.7658C31.617 16.6171 30.0185 15.8364 29.9441 15.9108ZM11.2081 26.2825C11.5798 26.0595 12.0259 25.8364 12.5092 25.6506C11.8029 25.3532 11.0966 25.0558 10.3902 24.7212C10.0557 24.9071 9.75828 25.1301 9.53523 25.3532C10.0929 25.6506 10.6133 25.9851 11.2081 26.2825ZM8.90326 26.5056C8.90326 26.9517 9.16348 27.3606 9.75828 27.8439C9.83263 27.5837 9.94415 27.435 10.13 27.2119C9.68393 26.9889 9.31218 26.7286 8.90326 26.5056ZM12.2862 18.2528C17.156 16.8402 22.2862 16.3941 27.4906 15.0186C25.446 14.461 24.3679 14.2379 22.2118 14.4982C19.0891 14.8699 15.6691 15.539 12.7323 16.3941C11.5798 16.7286 5.52036 18.4387 7.26757 20.855C7.26757 20.8922 8.30847 19.4424 12.2862 18.2528ZM30.5761 13.2714C29.7954 12.8996 28.7917 12.5651 27.7137 12.2677C27.2304 12.6394 26.7099 12.974 25.8921 13.2714C27.1932 13.4944 28.1969 13.8662 29.3122 14.2008C29.5352 14.3123 30.4274 13.4573 30.5761 13.2714ZM32.9925 17.9554C32.8438 18.0669 32.6951 18.2156 32.5092 18.3271C31.394 19.1822 29.6468 19.8513 27.2304 20.5205C22.2118 21.8587 18.5687 22.0818 14.4051 23.0855C13.5873 23.2714 12.7694 23.5688 11.9888 23.8662C12.7694 24.2751 13.5873 24.6097 14.4423 24.9443C16.1152 24.461 16.933 24.2379 19.3865 23.829C20.3159 23.6803 23.1784 23.1599 25.2601 22.7138C28.9776 21.9703 34.4423 20.2231 32.9925 17.9554Z" fill="#00487C"/>
<g id="g1109">
<path id="path887" fill-rule="evenodd" clip-rule="evenodd" d="M59.3866 28.6989H63.513L63.9963 25.6877H66.8215L67.3048 28.6989H71.4312L67.9368 11.1896H62.8067L59.3866 28.6989ZM65.4461 16.4684L66.2267 21.8215H64.7026L65.4461 16.4684Z" fill="#00487C"/>
<path id="path889" fill-rule="evenodd" clip-rule="evenodd" d="M75.3717 17.9926C76.0409 17.9926 77.2304 17.5836 77.2304 16.2825C77.2304 14.7584 75.8178 14.6468 75.4461 14.6468C74.9628 14.6468 74.1078 14.7212 73.2156 15.1301L73.1784 11.3383C74.5539 11.0037 75.5576 10.8922 76.71 10.8922C80.0185 10.8922 81.5427 13.2342 81.5427 15.5018C81.5427 17.7323 80.2416 19.0706 79.0148 19.5911V19.7769C80.2044 20.1487 81.8029 21.3011 81.8029 23.9777C81.8029 27.2862 79.4981 29.1078 76.5613 29.1078C74.9628 29.1078 73.9591 28.8847 72.7323 28.2156L72.8066 24.5725C73.9591 25.0557 74.7397 25.0929 75.5204 25.0929C76.8215 25.0929 77.342 24.1264 77.342 23.4201C77.342 22.4535 76.71 21.7844 75.3345 21.7844H73.6617V17.9926H75.3717Z" fill="#00487C"/>
<path id="polygon891" fill-rule="evenodd" clip-rule="evenodd" d="M94.8141 28.6989H90.7249V15.3903H87.7881V28.6989H83.6989V11.1896H94.8141V28.6989Z" fill="#00487C"/>
<path id="path893" fill-rule="evenodd" clip-rule="evenodd" d="M97.1189 28.6989H101.171V22.9368H102.546C106.561 22.9368 107.825 19.3308 107.825 17.026C107.825 14.7583 106.413 11.1896 102.546 11.1896H97.1189V28.6989ZM101.171 15.0557H102.137C103.067 15.0557 103.624 15.6134 103.624 17.0632C103.624 18.9591 102.658 19.0706 102.137 19.0706H101.171V15.0557Z" fill="#00487C"/>
<path id="path895" fill-rule="evenodd" clip-rule="evenodd" d="M115.335 28.9219C120.167 28.9219 121.766 24.4238 121.766 19.9256C121.766 15.4275 120.13 10.9294 115.335 10.9294C110.502 10.9294 108.903 15.4275 108.903 19.9256C108.903 24.4238 110.539 28.9219 115.335 28.9219ZM115.335 24.684C113.922 24.684 113.178 23.0111 113.178 19.9256C113.178 16.8401 113.922 15.1673 115.335 15.1673C116.784 15.1673 117.491 16.8401 117.491 19.9256C117.528 23.0111 116.784 24.684 115.335 24.684Z" fill="#00487C"/>
<path id="path897" fill-rule="evenodd" clip-rule="evenodd" d="M139.461 28.6989H144.331C145.372 28.6989 149.758 28.2528 149.796 22.974C149.796 18.513 146.375 17.7323 144.182 17.7323H143.476V15.4275H148.866V11.1896H139.498V28.6989H139.461ZM143.476 25.2044V21.2267H144.071C144.554 21.2267 145.818 21.2639 145.818 23.0483C145.818 24.907 144.517 25.2044 144.071 25.2044H143.476Z" fill="#00487C"/>
<path id="polygon899" fill-rule="evenodd" clip-rule="evenodd" d="M175.186 28.6989H171.245V21.71H168.383V28.6989H164.405V11.1896H168.383V17.5093H171.245V11.1896H175.186V28.6989Z" fill="#00487C"/>
<path id="polygon901" fill-rule="evenodd" clip-rule="evenodd" d="M189.312 11.1896L186.19 19.5167L189.758 28.6989H185.074L182.807 21.6728H181.84V28.6989H177.862V11.1896H181.84V17.5093H182.695L185 11.1896H189.312Z" fill="#00487C"/>
<path id="polygon903" fill-rule="evenodd" clip-rule="evenodd" d="M51.5427 11.1896H59.8699V15.5762H55.6691V28.6989H51.5427V11.1896Z" fill="#00487C"/>
<path id="polygon905" fill-rule="evenodd" clip-rule="evenodd" d="M132.695 28.6989V18.0297L130.242 21.078L127.788 18.0297V28.6989H123.736V11.1896H127.193L130.242 15.316L133.29 11.1896H136.747V28.6989H132.695Z" fill="#00487C"/>
<path id="path907" fill-rule="evenodd" clip-rule="evenodd" d="M150.576 28.736H154.703L155.186 25.7249H158.011L158.532 28.736H162.658L159.164 11.2267H154.033L150.576 28.736ZM156.636 16.5056L157.416 21.8587H155.892L156.636 16.5056Z" fill="#00487C"/>
</g>
</g>
</g>
<defs>
<clipPath id="clip0_149_12839">
<rect width="189.517" height="40" fill="white" transform="translate(0.241577)"/>
</clipPath>
</defs>
</svg>
