<svg width="262" height="70" viewBox="0 0 262 70" fill="none" xmlns="http://www.w3.org/2000/svg">
<g clip-path="url(#clip0_4_50)">
<path d="M61.1676 68.6982C60.6793 68.7002 60.1947 68.6125 59.7377 68.4393C59.308 68.2837 58.9158 68.0387 58.5867 67.7201C58.261 67.4059 58.0009 67.0293 57.8218 66.6126C57.4597 65.7156 57.4597 64.7119 57.8218 63.8149C57.999 63.3971 58.2593 63.0201 58.5867 62.7073C58.9256 62.3944 59.3212 62.1502 59.752 61.9881C60.21 61.8195 60.6942 61.7343 61.1819 61.7364C61.7234 61.7289 62.2608 61.8317 62.7618 62.0384C63.2242 62.2332 63.6317 62.5395 63.9485 62.9303L62.9477 63.858C62.7395 63.6048 62.4783 63.4009 62.1827 63.2611C61.8918 63.1249 61.5742 63.056 61.2533 63.0597C60.9598 63.0553 60.6683 63.1091 60.3955 63.2179C60.1274 63.3117 59.8832 63.4639 59.6805 63.6638C59.4918 63.8618 59.3414 64.0935 59.2373 64.3471C59.1291 64.6266 59.0756 64.9246 59.08 65.2245C59.0744 65.5246 59.1278 65.8228 59.2373 66.1019C59.3364 66.3688 59.4871 66.6132 59.6805 66.8211C59.8853 67.0184 60.1288 67.1702 60.3955 67.267C60.6683 67.3759 60.9598 67.4296 61.2533 67.4253C61.5752 67.4306 61.8937 67.3591 62.1827 67.2167C62.4752 67.0718 62.7355 66.8688 62.9477 66.6198L63.9485 67.5403C63.632 67.9331 63.2245 68.2418 62.7618 68.4393C62.254 68.6361 61.7111 68.7243 61.1676 68.6982Z" fill="#162C43"/>
<path d="M66.3363 68.5832V62.7073L66.6938 63.0741H64.1988V61.8011H70.0253V63.0741H67.5302L67.8734 62.7073V68.5544L66.3363 68.5832Z" fill="#162C43"/>
<path d="M70.9975 68.5832V61.8299H73.9072C74.4391 61.8179 74.9676 61.9184 75.4586 62.1247C75.8703 62.2982 76.2212 62.5911 76.4666 62.9662C76.7008 63.3608 76.8245 63.8119 76.8245 64.2716C76.8245 64.7312 76.7008 65.1823 76.4666 65.5769C76.2212 65.952 75.8703 66.245 75.4586 66.4184C74.9693 66.6308 74.44 66.7339 73.9072 66.7204H71.8554L72.5703 66.0012V68.5688L70.9975 68.5832ZM72.5632 66.1882L71.8483 65.469H73.8143C74.1969 65.4973 74.577 65.3877 74.8866 65.1598C75.009 65.052 75.1055 64.9177 75.1686 64.7669C75.2318 64.6162 75.26 64.4529 75.2512 64.2896C75.2606 64.1272 75.2325 63.9648 75.1693 63.8151C75.106 63.6655 75.0093 63.5325 74.8866 63.4265C74.5747 63.204 74.1957 63.0972 73.8143 63.1244H71.8483L72.5632 62.4052V66.1882Z" fill="#162C43"/>
<path d="M81.1564 68.6982C80.6562 68.7038 80.1593 68.616 79.6908 68.4393C79.257 68.2791 78.8587 68.0347 78.5184 67.7201C78.1905 67.4062 77.928 67.0296 77.7463 66.6126C77.5632 66.1706 77.4708 65.696 77.4746 65.2173C77.47 64.7408 77.5624 64.2684 77.7463 63.8292C77.928 63.4122 78.1905 63.0356 78.5184 62.7217C78.8572 62.4087 79.2529 62.1645 79.6837 62.0025C80.1407 61.8295 80.6252 61.7417 81.1135 61.7436C81.6011 61.7425 82.0851 61.8277 82.5433 61.9953C82.975 62.1555 83.371 62.3999 83.7086 62.7145C84.0425 63.0232 84.3059 63.4011 84.4807 63.822C84.8431 64.7165 84.8431 65.7181 84.4807 66.6126C84.306 67.0357 84.0427 67.4159 83.7086 67.7273C83.3732 68.0447 82.9766 68.2895 82.5433 68.4465C82.0995 68.6124 81.6299 68.6976 81.1564 68.6982ZM81.1564 67.3749C81.4338 67.3811 81.7094 67.3301 81.9664 67.2249C82.2234 67.1198 82.4562 66.9628 82.6506 66.7636C82.8441 66.5695 82.9951 66.3367 83.0938 66.0803C83.3032 65.5168 83.3032 64.8962 83.0938 64.3327C82.9951 64.0763 82.8441 63.8436 82.6506 63.6494C82.4618 63.4546 82.2356 63.3005 81.9857 63.1963C81.7224 63.0889 81.4405 63.0351 81.1564 63.0381C80.8699 63.0341 80.5855 63.0879 80.32 63.1963C80.0682 63.2968 79.8413 63.4515 79.6551 63.6494C79.4639 63.8455 79.3133 64.0777 79.2118 64.3327C79.0025 64.8962 79.0025 65.5168 79.2118 66.0803C79.3133 66.3353 79.4639 66.5675 79.6551 66.7636C79.8431 66.9594 80.0695 67.1136 80.32 67.2167C80.5832 67.3242 80.8651 67.3779 81.1493 67.3749H81.1564Z" fill="#162C43"/>
<path d="M86.0178 68.5832V61.8299H87.5548V66.2386L90.7648 61.8299H92.1946V68.5832H90.6575V64.196L87.4547 68.5832H86.0178Z" fill="#162C43"/>
<path d="M95.3402 68.5832V62.7073L95.6976 63.0741H93.2026V61.8011H99.0219V63.0741H96.5269L96.8772 62.7073V68.5544L95.3402 68.5832Z" fill="#162C43"/>
<path d="M101.546 67.3246H105.177V68.5832H99.9799V61.8299H105.049V63.0813H101.524L101.546 67.3246ZM101.431 64.5413H104.663V65.7639H101.431V64.5413Z" fill="#162C43"/>
<path d="M106.521 68.6911C106.398 68.6979 106.273 68.6979 106.15 68.6911L105.756 68.6119L105.849 67.2886C105.937 67.3147 106.029 67.3268 106.121 67.3246C106.242 67.3284 106.361 67.3013 106.469 67.246C106.576 67.1907 106.668 67.1088 106.736 67.0081C106.906 66.7228 107.014 66.4039 107.05 66.0732C107.128 65.5852 107.173 65.0927 107.186 64.5988L107.279 61.8586H112.441V68.6119H110.897V62.772L111.254 63.1316H108.287L108.609 62.7648L108.545 64.5413C108.532 65.1328 108.489 65.7234 108.416 66.3105C108.361 66.7598 108.248 67.1998 108.08 67.6194C107.957 67.9423 107.749 68.2257 107.479 68.4393C107.195 68.6248 106.859 68.7131 106.521 68.6911Z" fill="#162C43"/>
<path d="M117.381 64.0594C118.046 64.0202 118.704 64.2105 119.247 64.5988C119.476 64.8006 119.655 65.0531 119.77 65.3364C119.885 65.6197 119.934 65.9261 119.912 66.2314C119.933 66.5593 119.88 66.8879 119.756 67.1921C119.632 67.4962 119.441 67.7678 119.197 67.9862C118.608 68.4145 117.891 68.6254 117.166 68.5832H114.114V61.8299H115.651V64.0594H117.381ZM117.052 67.4253C117.395 67.4473 117.734 67.3396 118.003 67.1232C118.119 67.0136 118.211 66.8794 118.27 66.7302C118.329 66.581 118.355 66.4205 118.346 66.2602C118.36 66.1067 118.336 65.9523 118.276 65.8105C118.216 65.6687 118.122 65.544 118.003 65.4475C117.72 65.2644 117.387 65.1763 117.052 65.1957H115.622V67.4253H117.052Z" fill="#162C43"/>
<path d="M122.592 68.5832H121.034V61.8299H122.592V68.5832ZM125.752 65.8143H122.471V64.4909H125.752V65.8143ZM125.638 61.8299H127.189V68.5832H125.638V61.8299Z" fill="#162C43"/>
<path d="M128.097 68.5832L131.078 61.8299H132.615L135.625 68.5832H133.995L131.536 62.621H132.158L129.692 68.5832H128.097ZM129.606 67.1448L129.999 65.9581H133.473L133.874 67.1448H129.606Z" fill="#162C43"/>
<path d="M140.022 68.5832V66.4256L140.394 66.7636H138.556C138.038 66.7796 137.523 66.6788 137.048 66.4687C136.65 66.2953 136.313 66.0044 136.083 65.6345C135.852 65.2383 135.738 64.7843 135.754 64.3255C135.739 63.8503 135.861 63.3809 136.104 62.9734C136.35 62.5938 136.7 62.294 137.112 62.1104C137.597 61.8993 138.121 61.7962 138.649 61.8083H141.552V68.5616L140.022 68.5832ZM135.732 68.5832L137.405 66.1523H138.964L137.377 68.5832H135.732ZM140.022 65.9581V62.7073L140.394 63.11H138.678C138.315 63.0803 137.955 63.1909 137.67 63.4193C137.55 63.5372 137.457 63.6801 137.398 63.8378C137.339 63.9956 137.314 64.1645 137.327 64.3327C137.316 64.4991 137.34 64.6658 137.398 64.822C137.456 64.9782 137.546 65.1203 137.663 65.2389C137.942 65.4621 138.294 65.5724 138.649 65.5482H140.394L140.022 65.9581Z" fill="#162C43"/>
<path d="M145.927 68.5832V61.8299H147.464V66.2386L150.674 61.8299H152.104V68.5832H150.574V64.196L147.371 68.5832H145.927Z" fill="#162C43"/>
<path d="M155.371 68.5832H153.791V61.8299H155.35L155.371 68.5832ZM158.531 65.8143H155.221V64.4909H158.502L158.531 65.8143ZM158.417 61.8299H159.968V68.5832H158.417V61.8299Z" fill="#162C43"/>
<path d="M160.94 69.9928V67.3102H168.547V69.9928H167.117V68.5544H162.37V69.9928H160.94ZM166.066 67.8784V63.1028H163.778L163.735 64.0882C163.735 64.5053 163.693 64.9009 163.657 65.2749C163.628 65.6185 163.575 65.9598 163.499 66.2961C163.443 66.5636 163.352 66.8224 163.228 67.0657C163.143 67.2606 162.994 67.4205 162.806 67.5188L161.147 67.3102C161.255 67.3154 161.362 67.2961 161.461 67.2537C161.56 67.2114 161.648 67.1471 161.719 67.0657C161.892 66.857 162.015 66.6108 162.077 66.3465C162.177 65.9964 162.244 65.6376 162.277 65.2749C162.32 64.8649 162.348 64.419 162.37 63.9299L162.456 61.8155H167.603V67.864L166.066 67.8784Z" fill="#162C43"/>
<path d="M171.85 67.5116L168.818 61.8299H170.477L172.7 66.3537L171.85 67.5116ZM169.805 67.3102C170.104 67.4097 170.422 67.4416 170.734 67.4037C170.884 67.369 171.026 67.3031 171.149 67.2102C171.272 67.1173 171.374 66.9995 171.449 66.8643L171.771 66.3608L171.907 66.217L174.123 61.8299H175.66L172.8 67.1664C172.588 67.6038 172.277 67.9855 171.893 68.2811C171.56 68.5325 171.163 68.6845 170.749 68.7198C170.306 68.7516 169.862 68.6751 169.455 68.4969L169.805 67.3102Z" fill="#162C43"/>
<path d="M179.463 68.6982C178.975 68.7009 178.49 68.6131 178.034 68.4393C177.604 68.2837 177.212 68.0387 176.883 67.7201C176.555 67.4078 176.294 67.0308 176.118 66.6126C175.756 65.7155 175.756 64.7119 176.118 63.8149C176.292 63.3956 176.553 63.0182 176.883 62.7073C177.219 62.3912 177.615 62.1466 178.048 61.9881C178.506 61.8194 178.99 61.7341 179.478 61.7364C180.022 61.7281 180.561 61.8309 181.065 62.0384C181.526 62.2352 181.933 62.5411 182.252 62.9302L181.244 63.858C181.038 63.6051 180.779 63.4012 180.486 63.2611C180.195 63.1248 179.877 63.056 179.556 63.0597C179.263 63.0546 178.971 63.1083 178.698 63.2179C178.43 63.3117 178.186 63.4639 177.984 63.6638C177.792 63.8599 177.642 64.0921 177.54 64.3471C177.432 64.6266 177.379 64.9245 177.383 65.2245C177.377 65.5246 177.431 65.8228 177.54 66.1019C177.638 66.361 177.789 66.5963 177.984 66.7922C178.178 66.9881 178.412 67.1401 178.67 67.2383C178.943 67.3478 179.234 67.4016 179.528 67.3965C179.85 67.4018 180.168 67.3303 180.457 67.1879C180.747 67.0429 181.005 66.8398 181.215 66.591L182.223 67.5116C181.905 67.9029 181.498 68.2112 181.036 68.4106C180.537 68.6136 180.002 68.7115 179.463 68.6982Z" fill="#162C43"/>
<path d="M184.632 68.5832V62.7073L184.99 63.0741H182.495V61.8011H188.314V63.0741H185.826L186.169 62.7073V68.5544L184.632 68.5832Z" fill="#162C43"/>
<path d="M189.293 68.5832V61.8299H192.203C192.735 61.8179 193.263 61.9184 193.754 62.1247C194.166 62.2982 194.517 62.5911 194.762 62.9662C194.992 63.3626 195.112 63.813 195.112 64.2716C195.112 64.7301 194.992 65.1805 194.762 65.5769C194.517 65.952 194.166 66.245 193.754 66.4184C193.265 66.6308 192.736 66.7339 192.203 66.7204H190.151L190.866 66.0012V68.5688L189.293 68.5832ZM190.859 66.1882L190.144 65.469H192.11C192.493 65.4973 192.873 65.3877 193.182 65.1598C193.305 65.052 193.401 64.9177 193.464 64.7669C193.528 64.6162 193.556 64.4529 193.547 64.2896C193.556 64.1272 193.528 63.9648 193.465 63.8151C193.402 63.6655 193.305 63.5325 193.182 63.4265C192.871 63.204 192.492 63.0972 192.11 63.1244H190.144L190.859 62.4052V66.1882Z" fill="#162C43"/>
<path d="M196.142 68.5832V61.8299H197.679V66.2386L200.889 61.8299H202.319V68.5832H200.782V64.196L197.579 68.5832H196.142Z" fill="#162C43"/>
<path d="M207.852 68.5832V66.4256L208.224 66.7636H206.387C205.869 66.7796 205.353 66.6788 204.878 66.4687C204.48 66.2953 204.144 66.0044 203.913 65.6345C203.683 65.2383 203.569 64.7843 203.584 64.3255C203.572 63.8496 203.696 63.3803 203.942 62.9734C204.185 62.594 204.533 62.2941 204.943 62.1104C205.427 61.8993 205.952 61.7962 206.48 61.8083H209.389V68.5616L207.852 68.5832ZM203.563 68.5832L205.236 66.1523H206.794L205.264 68.5832H203.563ZM207.852 65.9581V62.7073L208.224 63.11H206.508C206.146 63.0803 205.785 63.1909 205.5 63.4193C205.28 63.6704 205.158 63.994 205.158 64.3291C205.158 64.6642 205.28 64.9878 205.5 65.2389C205.776 65.4642 206.126 65.5749 206.48 65.5482H208.224L207.852 65.9581Z" fill="#162C43"/>
<path d="M242.232 49.8983H262.493L202.87 14.9307L178.656 29.2068L127.054 0L79.7123 26.7472L59.6234 14.9091L0 49.8767H20.2676V61.5566H6.6844V64.5125H25.5937L25.2577 47.0574H16.0068L59.5447 20.7922L101.724 45.8204H96.3839V54.6522H166.109V45.8204H160.811L202.948 20.7922L246.493 47.0574H237.242L236.906 64.5125H255.816V61.5566H242.232V49.8983ZM148.172 47.1725L161.405 47.4314V51.5596H101.095V47.4314L114.328 47.1725L84.445 29.5664L127.032 5.47313L173.909 31.9973L148.172 47.1725Z" fill="#254262"/>
<path d="M165.315 45.1659L202.934 23.0073L240.867 45.1659H236.349L203.091 25.5677L169.626 45.1659H165.315Z" fill="#162C43"/>
<path d="M171.449 32.623L168.868 34.1333L127.068 10.0976L89.4493 31.2925L87.0258 29.9116L127.118 7.40778L171.449 32.623Z" fill="#162C43"/>
<path d="M97.1846 45.1659L59.5661 23.0073L21.6331 45.1659H26.1585L59.4089 25.5677L92.8737 45.1659H97.1846Z" fill="#162C43"/>
</g>
<defs>
<clipPath id="clip0_4_50">
<rect width="262" height="70" fill="white"/>
</clipPath>
</defs>
</svg>
