<svg width="208" height="40" viewBox="0 0 208 40" fill="none" xmlns="http://www.w3.org/2000/svg">
<g id="otkritie_logo 1" clip-path="url(#clip0_149_12834)">
<g id="Group">
<g id="Group_2">
<path id="Vector" d="M20.9585 0C9.89859 0 0.958496 8.94009 0.958496 20C0.958496 31.0599 9.89859 40 20.9585 40C32.0184 40 40.9585 31.0599 40.9585 20C40.9585 8.94009 31.9262 0 20.9585 0ZM18.1014 28.4793L16.6267 32.8111C11.0967 30.9677 7.41011 25.7143 7.41011 19.8157C7.41011 13.917 11.0967 8.75576 16.7189 6.82028L18.1935 11.1521C14.5069 12.3502 12.1106 15.8525 12.1106 19.7235C12.0184 23.7788 14.4147 27.2811 18.1014 28.4793ZM25.0138 32.9032L23.6313 28.5714C27.4101 27.3733 29.8986 23.871 29.8986 19.9078C29.8986 15.9447 27.4101 12.5346 23.7235 11.3364L25.1981 6.91244C30.8202 8.75576 34.5991 14.0092 34.5991 19.9078C34.5069 25.8986 30.6359 31.1521 25.0138 32.9032Z" fill="#00BEF0"/>
</g>
<path id="Vector_2" d="M204 23.5023L206.212 26.1751C203.908 28.5714 201.051 29.2166 198.747 29.2166C196.535 29.2166 194.968 28.8479 193.585 28.2028C190.636 26.7281 189.161 23.7788 189.161 20.1843C189.161 14.7465 192.848 10.6912 198.286 10.6912C204.369 10.6912 207.318 15.2074 206.857 21.106H193.032C193.124 22.5806 193.954 23.9631 195.152 24.7005C196.166 25.3456 197.364 25.6221 198.931 25.6221C200.682 25.7143 202.433 25.0691 204 23.5023ZM193.217 17.9723H202.986C202.71 15.8525 200.959 14.0092 198.194 14.0092C195.244 14.0092 193.493 16.0369 193.217 17.9723ZM100.313 28.7558H105.29L97.4562 19.6313L105.198 11.0599H100.313L94.4147 17.8802H92.6635V11.0599H88.8847V28.6636H92.6635V21.659H94.4147L100.313 28.7558ZM116.627 14.2857C113.401 14.2857 111.281 16.7742 111.281 19.9078C111.281 23.0415 113.401 25.5299 116.627 25.5299C119.852 25.5299 121.88 23.1336 121.88 19.9078C121.88 16.8664 119.945 14.2857 116.627 14.2857ZM117.272 10.6912C122.249 10.6912 125.935 14.5622 125.935 19.9078C125.935 25.1613 122.341 29.2166 117.272 29.2166C114.876 29.2166 112.94 28.3871 111.558 26.9124V36.129H107.687V11.1521H111.465V13.2719C112.94 11.5207 114.783 10.6912 117.272 10.6912ZM167.41 11.1521H151.65V14.6544H157.641V28.7558H161.511V14.6544H167.502V11.1521H167.41ZM86.2119 11.1521H70.4515V14.6544H76.4423V28.7558H80.2211V14.6544H86.2119V11.1521ZM65.7511 20C65.7511 16.682 63.4469 14.2857 60.2211 14.2857C57.0875 14.2857 54.6912 16.682 54.6912 20C54.6912 23.318 56.9953 25.7143 60.2211 25.7143C63.3548 25.7143 65.7511 23.318 65.7511 20ZM50.8202 20C50.8202 14.7465 54.8755 10.7834 60.3133 10.7834C65.7511 10.7834 69.8064 14.7465 69.8064 20C69.8064 25.2535 65.7511 29.3088 60.3133 29.3088C54.8755 29.3088 50.8202 25.2535 50.8202 20ZM186.12 11.1521V28.7558H182.341V17.4193L173.124 28.7558H170.083V11.1521H173.862V22.4885L183.078 11.1521H186.12ZM149.069 28.7558H145.29V11.1521H149.069V28.7558ZM139.207 22.765C139.207 21.1982 138.101 20.0922 136.627 20.0922H132.756V25.5299H136.627C138.101 25.5299 139.207 24.3318 139.207 22.765ZM143.078 22.765C143.078 26.2673 140.498 28.7558 136.811 28.7558H129.069V11.1521H132.848V16.8664H137.18C140.774 16.8664 143.078 19.1705 143.078 22.765Z" fill="#181716"/>
</g>
</g>
<defs>
<clipPath id="clip0_149_12834">
<rect width="206.083" height="40" fill="white" transform="translate(0.958496)"/>
</clipPath>
</defs>
</svg>
