<svg width="240" height="40" viewBox="0 0 240 40" fill="none" xmlns="http://www.w3.org/2000/svg">
<g id="Sberbank_Logo_2020 1">
<g id="surface1">
<path id="Vector" d="M107.313 11.6029L112.314 7.86527H95.566V30.2566H112.314V26.5159H100.35V20.8009H110.575V17.0633H100.35V11.6029H107.313Z" fill="#21A038"/>
<path id="Vector_2" d="M82.9128 16.5853H77.1109V11.6029H86.3928L91.3969 7.86527H72.3271V30.2566H82.2951C87.8797 30.2566 91.1051 27.6894 91.1051 23.2192C91.1051 18.9321 88.2057 16.5853 82.9128 16.5853ZM82.115 26.5159H77.1109V20.3228H82.115C85.1603 20.3228 86.5728 21.3504 86.5728 23.4396C86.5728 25.5288 85.0517 26.5159 82.115 26.5159Z" fill="#21A038"/>
<path id="Vector_3" d="M125.873 7.86527H116.775V30.2566H121.558V23.9145H125.911C131.709 23.9145 135.335 20.8382 135.335 15.8899C135.335 10.9416 131.709 7.86527 125.873 7.86527ZM125.765 20.1769H121.524V11.6029H125.765C128.847 11.6029 130.514 13.1426 130.514 15.8899C130.514 18.6372 128.847 20.1769 125.765 20.1769Z" fill="#21A038"/>
<path id="Vector_4" d="M64.1318 25.417C62.8653 26.1155 61.4497 26.4818 60 26.4818C55.685 26.4818 52.5683 23.3651 52.5683 19.078C52.5683 14.791 55.685 11.6743 60 11.6743C61.5584 11.6401 63.0826 12.1523 64.3491 13.0681L67.7949 10.5039L67.5776 10.2835C65.5847 8.48613 62.8994 7.57036 59.8541 7.57036C56.5573 7.57036 53.5462 8.70654 51.3731 10.7585C49.197 12.8849 47.9646 15.8526 48.036 18.9321C47.9988 22.0457 49.197 25.0507 51.3731 27.2486C53.6548 29.4123 56.7001 30.6229 59.82 30.5484C63.2626 30.5484 66.2707 29.3377 68.3009 27.1399L65.2215 24.8303L64.1318 25.417Z" fill="#21A038"/>
<path id="Vector_5" d="M192.87 7.90253V30.2908H197.654V21.13H207.843V30.2908H212.629V7.90253H207.843V17.1006H197.654V7.90253H192.87ZM184.641 30.2908H189.679L180.326 7.90253H175.468L165.934 30.2908H170.755L172.677 25.7833H182.828L184.641 30.2908ZM174.127 22.0457L177.824 13.0681L181.304 22.0457H174.127ZM223.361 21.2417H226.332L233.655 30.2566H239.817L230.029 18.6745L238.584 7.86527H233.112L226.006 17.4669H223.361V7.86527H218.574V30.2566H223.361V21.2417ZM150.127 16.6225V11.6401H162.635V7.90253H145.34V30.2908H155.311C160.893 30.2908 164.121 27.7266 164.121 23.2564C164.121 18.9694 161.222 16.6225 155.926 16.6225H150.127ZM150.127 26.5532V20.3601H155.131C158.174 20.3601 159.589 21.3876 159.589 23.4768C159.589 25.566 158.102 26.5904 155.131 26.5904H150.127V26.5532Z" fill="#21A038"/>
<path id="Vector_6" d="M33.064 7.71937C33.9332 8.85555 34.6596 10.1004 35.2743 11.4197L18.5265 23.9145L11.4922 19.4443V14.0956L18.4893 18.5286L33.064 7.71937Z" fill="#21A038"/>
<path id="Vector_7" d="M4.34912 19.078C4.34912 18.8204 4.34912 18.6031 4.38637 18.3454L0.145894 18.125C0.145894 18.4199 0.108643 18.749 0.108643 19.0408C0.108643 24.1722 2.17611 28.8255 5.51013 32.1968L8.5182 29.1546C5.94474 26.5904 4.34912 23.036 4.34912 19.078Z" fill="url(#paint0_linear_149_12803)"/>
<path id="Vector_8" d="M18.4892 4.7858C18.7438 4.7858 18.9611 4.7858 19.2156 4.82306L19.4329 0.536009C19.1411 0.536009 18.8152 0.498758 18.5265 0.498758C13.4509 0.498758 8.84726 2.58796 5.51013 5.95923L8.5182 9.00145C11.0575 6.40004 14.6088 4.7858 18.4892 4.7858Z" fill="url(#paint1_linear_149_12803)"/>
<path id="Vector_9" d="M18.4892 33.3702C18.2347 33.3702 18.0174 33.3702 17.7628 33.333L17.5455 37.62C17.8373 37.62 18.1633 37.6573 18.452 37.6573C23.5275 37.6573 28.1343 35.5681 31.4683 32.1968L28.4603 29.1546C25.9209 31.7933 22.4038 33.3702 18.4892 33.3702Z" fill="url(#paint2_linear_149_12803)"/>
<path id="Vector_10" d="M26.4642 7.27856L30.0528 4.60265C26.8988 2.03849 22.8756 0.461506 18.4893 0.461506V4.74855C21.4632 4.7858 24.2167 5.70157 26.4642 7.27856Z" fill="url(#paint3_linear_149_12803)"/>
<path id="Vector_11" d="M36.9071 19.078C36.9071 17.9418 36.7984 16.8429 36.6153 15.744L32.6635 18.7117C32.6635 18.8204 32.6635 18.9694 32.6635 19.078C32.6635 23.2937 30.8506 27.0685 27.9884 29.6699L30.8506 32.858C34.5509 29.4868 36.9071 24.5385 36.9071 19.078Z" fill="#21A038"/>
<path id="Vector_12" d="M18.4893 33.3702C14.3202 33.3702 10.5857 31.5387 8.01225 28.6424L4.85828 31.5387C8.22955 35.3135 13.0878 37.6573 18.4893 37.6573V33.3702Z" fill="url(#paint4_linear_149_12803)"/>
<path id="Vector_13" d="M9.02731 8.48613L6.16204 5.29801C2.42756 8.70654 0.108643 13.6175 0.108643 19.078H4.34912C4.34912 14.8996 6.16204 11.0906 9.02731 8.48613Z" fill="url(#paint5_linear_149_12803)"/>
</g>
</g>
<defs>
<linearGradient id="paint0_linear_149_12803" x1="5.05793" y1="31.6756" x2="0.702788" y2="19.0296" gradientUnits="userSpaceOnUse">
<stop offset="0.1444" stop-color="#F2E913"/>
<stop offset="0.3037" stop-color="#E7E518"/>
<stop offset="0.5823" stop-color="#CADB26"/>
<stop offset="0.891" stop-color="#A3CD39"/>
</linearGradient>
<linearGradient id="paint1_linear_149_12803" x1="6.71967" y1="5.47528" x2="17.7236" y2="1.26286" gradientUnits="userSpaceOnUse">
<stop offset="0.0592" stop-color="#0FA8E0"/>
<stop offset="0.5385" stop-color="#0099F9"/>
<stop offset="0.9234" stop-color="#0291EB"/>
</linearGradient>
<linearGradient id="paint2_linear_149_12803" x1="17.2978" y1="34.0111" x2="30.4097" y2="31.0343" gradientUnits="userSpaceOnUse">
<stop offset="0.1226" stop-color="#A3CD39"/>
<stop offset="0.2846" stop-color="#86C339"/>
<stop offset="0.8693" stop-color="#21A038"/>
</linearGradient>
<linearGradient id="paint3_linear_149_12803" x1="17.6179" y1="3.1931" x2="28.5222" y2="6.57283" gradientUnits="userSpaceOnUse">
<stop offset="0.0566" stop-color="#0291EB"/>
<stop offset="0.79" stop-color="#0C8ACB"/>
</linearGradient>
<linearGradient id="paint4_linear_149_12803" x1="5.93657" y1="32.2169" x2="17.6516" y2="36.614" gradientUnits="userSpaceOnUse">
<stop offset="0.1324" stop-color="#F2E913"/>
<stop offset="0.2977" stop-color="#EBE716"/>
<stop offset="0.5306" stop-color="#D9E01F"/>
<stop offset="0.8023" stop-color="#BBD62D"/>
<stop offset="0.9829" stop-color="#A3CD39"/>
</linearGradient>
<linearGradient id="paint5_linear_149_12803" x1="3.35883" y1="19.5961" x2="8.06651" y2="7.29413" gradientUnits="userSpaceOnUse">
<stop offset="0.0698" stop-color="#A3CD39"/>
<stop offset="0.2599" stop-color="#81C55F"/>
<stop offset="0.9216" stop-color="#0FA8E0"/>
</linearGradient>
</defs>
</svg>
