<svg width="170" height="40" viewBox="0 0 170 40" fill="none" xmlns="http://www.w3.org/2000/svg">
<g id="Tinkoff_Bank_logo 1">
<path id="Vector" d="M17.8844 29.7776C17.8844 29.7776 18.3752 29.5768 18.4199 29.4318L18.3529 29.2689C18.3072 29.1618 18.3128 29.0457 18.4031 28.9833L18.9319 28.6162L19.8167 28.7869C19.8167 28.7869 19.656 28.5861 19.6716 28.3183L18.8282 28.1398L18.0316 28.6252C17.8926 28.7282 17.7922 28.8749 17.7463 29.0417C17.7004 29.2085 17.7117 29.3859 17.7784 29.5456L17.8844 29.7787L17.8844 29.7776ZM24.1396 32.0892C24.2969 32.0826 24.4731 32.0803 24.6639 32.0803C24.6639 32.0803 25.1191 30.7471 25.1448 30.7047C24.8067 30.547 24.4768 30.3724 24.1563 30.1814C24.2913 30.3845 24.6193 30.6154 24.5546 30.794L24.1396 32.0892ZM24.4107 16.5356C23.7346 17.2072 23.0864 17.456 22.5073 17.5141C22.4014 17.5256 22.2949 17.5315 22.1883 17.5319H22.1738C21.9608 17.5319 21.7484 17.5095 21.54 17.465C21.5021 17.6156 21.4541 17.9314 21.5914 18.2303C21.7141 18.5014 21.9629 18.7034 22.3266 18.8384L22.4493 18.8863L22.4504 19.018C22.4504 19.057 22.4795 19.9116 23.4099 20.1493C23.5617 19.9931 23.7 19.8514 23.8004 19.732C23.6108 19.2847 23.7112 18.8272 23.9867 18.603C23.9756 18.6509 23.8529 19.7722 24.7509 20.1894L24.8993 20.2597L24.8547 20.417C24.8402 20.465 24.5412 21.5505 25.6289 21.9544L25.8208 22.028L25.7349 22.2143C25.716 22.2556 25.2898 23.2407 26.2938 23.8008H28.4705V22.0682C27.6962 21.9733 27.3693 21.3497 27.2845 20.9079C26.9242 20.8465 26.6464 20.6914 26.4556 20.4382C25.9982 19.8357 26.3909 19.2835 26.3965 19.2534C26.3954 19.2578 26.3965 19.8446 26.7579 20.2084C26.9376 20.3824 27.1496 20.5185 27.472 20.5486L27.6293 20.5631L27.6427 20.7249C27.646 20.7595 27.7319 21.5549 28.4705 21.6799L28.4694 18.1433C28.4694 17.5944 28.6289 17.0432 28.8208 16.5345H24.4104L24.4107 16.5356ZM18.5503 18.1567L18.4923 20.4081L18.7489 20.4482L19.3737 18.2872L19.0557 17.6223L18.5514 18.1567H18.5503ZM19.9047 26.4951C19.8875 26.4945 19.8706 26.4905 19.8551 26.4832C19.8396 26.4759 19.8257 26.4655 19.8143 26.4527C19.8029 26.4398 19.7943 26.4248 19.7889 26.4085C19.7835 26.3922 19.7815 26.375 19.7831 26.3579C19.784 26.3409 19.7884 26.3244 19.7959 26.3092C19.8033 26.294 19.8138 26.2804 19.8266 26.2693C19.8393 26.2582 19.8542 26.2497 19.8703 26.2444C19.8864 26.2391 19.9034 26.2371 19.9203 26.2385C19.9939 26.2418 20.0452 26.3054 20.043 26.3746C20.0404 26.4088 20.0245 26.4407 19.9986 26.4632C19.9727 26.4858 19.9389 26.4972 19.9047 26.4951ZM25.4403 28.4888C25.4592 28.4888 25.4815 28.491 25.5016 28.4966C25.8921 28.6081 25.9892 30.0116 26.6708 30.1366C26.7378 30.1511 26.8002 30.1544 26.8538 30.1544C27.0513 30.1544 27.1684 30.0707 27.2956 29.9201C27.2956 29.9201 26.952 29.3813 26.6954 29.0165C26.3551 28.5389 26.0907 27.9622 25.4559 27.9622C25.4403 27.9622 25.4224 27.9622 25.4057 27.9644C25.2848 27.9693 25.1678 28.0088 25.0687 28.0782C24.8568 27.938 24.6088 27.8624 24.3547 27.8607C23.9586 27.8607 23.6485 28.0436 23.4934 28.0436H23.4878L22.071 27.9031C21.849 27.8807 21.6738 27.6576 21.6102 27.5706L21.5857 27.5327C21.5857 27.4936 21.5857 27.4546 21.5834 27.42C21.5355 26.2586 20.6385 25.7621 20.3183 25.7532C20.3183 25.7532 20.3562 25.5323 20.2703 25.4486L19.9579 25.8279L18.9315 25.3125L19.6634 26.1693L19.0442 26.8666C18.9661 26.9458 18.9761 27.0529 19.0085 27.0987L19.2762 27.3352L19.6154 27.1288C19.6321 27.1165 19.6634 27.1121 19.7013 27.1121C19.795 27.1121 19.9356 27.1366 20.0617 27.1366C20.2011 27.1366 20.3205 27.1076 20.335 26.9771C20.2926 27.4077 19.8932 28.1563 20.1554 28.7443L20.3495 29.1883L19.0966 29.0076L18.5098 29.9994C18.3291 30.3296 18.3 30.6866 18.4741 30.8808L18.6939 31.1563C18.6939 31.1563 19.0018 30.8294 19.0699 30.6141L18.9706 30.5048C18.8869 30.4122 18.8914 30.3296 18.9427 30.2303L19.3108 29.6189L20.7891 29.9681L20.8672 29.8343C20.9676 29.6669 21.1126 29.6178 21.2711 29.6178C21.3369 29.6178 21.4038 29.6256 21.473 29.6368C21.7474 29.6915 22.1993 29.764 22.6511 29.764C23.1476 29.764 23.6396 29.6747 23.9018 29.3813C24.4373 30.1767 25.5239 30.3028 25.438 30.7078L25.1524 32.0711C25.3421 32.0622 25.5239 32.0499 25.6969 32.0265L25.9691 30.6085C25.9912 30.4881 26.0105 30.3672 26.0271 30.2459C25.9222 30.1388 25.669 29.9146 25.5251 29.6412C25.3343 29.2719 25.438 29.079 25.2595 28.5992C25.2595 28.5992 25.3153 28.4877 25.4403 28.4877L25.4403 28.4888ZM38.5615 23.8476C37.4123 23.2786 36.6871 21.7724 36.5109 21.2302C36.3212 24.2179 34.8653 26.2906 33.1639 28.2854C32.2803 29.3207 31.9724 30.3271 31.9724 30.3271C31.9724 30.3271 32.1431 29.1869 32.9062 28.2587C34.4938 26.3487 36.0022 23.9699 36.1149 21.2187C36.1918 19.2997 35.6999 17.7434 34.93 16.4607C35.3607 17.7961 35.2993 19.4328 33.8389 20.9599C33.8389 20.9599 36.7474 17.4701 32.682 13.8911C31.0553 12.53 29.2748 11.6888 28.3588 11.093C31.6689 12.1752 33.2864 10.9837 33.2864 10.9837C32.2287 11.9018 30.8598 11.8862 30.0108 11.7535C30.2418 11.8661 30.4816 11.9844 30.7382 12.1216C33.5307 13.6412 36.039 16.1412 36.4674 19.602V19.5753C37.1156 22.9747 38.5615 23.8469 38.5615 23.8469L38.5615 23.8476ZM39.4116 19.8868C39.4373 19.8891 39.4596 19.8891 39.4853 19.8891C41.0416 19.8891 41.5682 18.2189 41.5682 18.2189H41.5381C41.2524 18.2189 38.9386 18.152 37.3029 16.069C36.2273 14.7002 35.3449 13.4963 33.6021 13.0233L33.4303 12.992L33.3934 12.8169C33.3455 12.5502 33.5273 12.3003 33.9423 12.0315C36.3466 10.454 34.7121 8.44132 34.7121 8.44132C34.7121 8.44132 34.0271 10.0501 32.4908 10.0501L32.3759 10.0478C32.2019 10.0389 32.0334 10.0333 31.8638 9.99653L31.5805 9.94074C31.5805 9.94074 32.0189 8.74698 30.9613 7.65254C30.1658 6.8247 29.1963 6.68414 28.6373 6.68414C28.3551 6.68414 28.1766 6.72096 28.1766 6.72096C28.7076 7.416 29.0914 8.57072 28.4778 9.28252C27.9479 9.89392 26.6537 9.92404 26.6537 10.8366C26.6537 11.2227 27.0141 11.6734 27.6612 12.0784C29.6069 13.3056 31.538 14.9344 32.3412 17.1176C33.3453 19.8398 32.214 21.6472 30.6008 22.6836C30.6008 22.6836 31.1073 23.1499 31.8403 23.2102C31.9898 23.2247 32.1359 23.2314 32.272 23.2314C33.8217 23.2314 34.6227 22.5028 34.6227 22.5028C34.6227 22.5028 34.4899 23.5092 33.6855 24.443C32.9403 25.3042 31.9641 25.813 30.4747 25.8342C30.4747 25.8342 30.4278 26.5259 31.0872 27.1261C31.51 27.5043 32.484 27.6281 32.484 27.6281C32.484 27.6281 30.6588 27.9974 30.4568 30.6984C30.3475 32.1621 29.9749 32.6698 29.9749 32.6698H30.0072C34.2424 32.6698 34.134 29.0305 34.134 29.0305C34.134 29.0305 34.4285 30.1082 35.61 30.3894C35.7528 30.4273 35.9057 30.4418 36.0507 30.4418C36.43 30.4418 36.7614 30.3525 36.7614 30.3525C36.7614 30.3525 36.1422 29.045 36.7558 27.2164C37.2657 25.698 37.1831 24.5735 37.1831 24.5735C37.1831 24.5735 37.7531 25.4381 39.1689 25.4459H39.1835C39.5179 25.4511 39.8482 25.3718 40.1439 25.2154C40.4395 25.059 40.6909 24.8306 40.8748 24.5512C38.0511 23.3764 38.33 19.5864 38.33 19.5864C38.33 19.5864 38.696 19.8608 39.4111 19.8876L39.4116 19.8868ZM11.1976 28.2857C9.49627 26.2908 8.04031 24.218 7.84843 21.2304C7.67327 21.7738 6.94923 23.2799 5.80123 23.8478C5.80123 23.8478 7.24491 22.9753 7.89307 19.5762V19.603C8.32259 16.1422 10.8306 13.6422 13.6231 12.1238C13.8797 11.9843 14.1207 11.8672 14.3494 11.7556C13.5015 11.8873 12.1315 11.9029 11.0749 10.9858C11.0749 10.9858 12.6926 12.1762 16.0013 11.094C15.0865 11.6898 13.3059 12.531 11.6801 13.8921C7.61375 17.4711 10.5221 20.9609 10.5221 20.9609C9.06059 19.4325 9.00035 17.798 9.43099 16.4617C8.66119 17.7447 8.16807 19.3011 8.24839 21.2213C8.35884 23.9714 9.86607 26.3497 11.4503 28.2613C12.2179 29.1873 12.3908 30.3275 12.3908 30.3275C12.3908 30.3275 12.0784 29.3223 11.1971 28.287L11.1976 28.2857ZM11.8782 27.6274C11.8782 27.6274 12.8522 27.5047 13.275 27.1254C13.9332 26.5262 13.8875 25.8346 13.8875 25.8346C12.397 25.8134 11.4219 25.3046 10.6733 24.4434C9.87223 23.5096 9.73835 22.5032 9.73835 22.5032C9.73835 22.5032 10.5394 23.2318 12.0868 23.2318C12.2263 23.2318 12.3713 23.2251 12.5197 23.2106C12.9776 23.1642 13.4108 22.9807 13.7625 22.684C12.1471 21.6475 11.0158 19.8401 12.0188 17.1168C12.8221 14.9357 14.7521 13.3058 16.7004 12.0776C17.3463 11.6737 17.7056 11.223 17.7056 10.837C17.7056 9.92437 16.4137 9.89425 15.8837 9.28285C15.2701 8.57104 15.655 7.41636 16.185 6.72128C16.185 6.72128 16.0076 6.68447 15.7242 6.68447C15.1664 6.68447 14.1969 6.82504 13.4003 7.65287C12.3404 8.74847 12.7811 9.94219 12.7811 9.94219L12.4977 9.99797C12.3293 10.0326 12.1586 10.0392 11.9845 10.0493L11.873 10.0504C10.3334 10.0504 9.64944 8.44277 9.64944 8.44277C9.64944 8.44277 8.01724 10.4543 10.4214 12.0318C10.8342 12.3007 11.0161 12.5517 10.9681 12.8172L10.9313 12.9913L10.7561 13.0225C9.01678 13.4967 8.1343 14.7005 7.05674 16.0694C5.42118 18.1523 3.1097 18.2193 2.82274 18.2193H2.7915C2.7915 18.2193 3.31918 19.8894 4.87666 19.8894C4.90121 19.8894 4.92352 19.8894 4.9503 19.8872C5.66542 19.8615 6.0325 19.5871 6.0325 19.5871C6.0325 19.5871 6.30918 23.3768 3.48658 24.5519C3.48658 24.5519 4.0009 25.4477 5.17906 25.4477H5.19245C6.60933 25.4388 7.17833 24.5741 7.17833 24.5741C7.17833 24.5741 7.09577 25.6998 7.60337 27.2171C8.21697 29.0468 7.60113 30.3521 7.60113 30.3521C7.60113 30.3521 7.93025 30.4414 8.31069 30.4414C8.45795 30.4414 8.60857 30.428 8.75025 30.39C9.93061 30.1089 10.2262 29.0312 10.2262 29.0312C10.2262 29.0312 10.118 32.6704 14.3538 32.6704H14.3851C14.3851 32.6704 14.0136 32.1628 13.9054 30.6991C13.7045 27.9992 11.8771 27.6277 11.8771 27.6277L11.8782 27.6274ZM21.2242 14.217H23.2212V14.9031C22.9869 14.6153 22.5295 14.6744 22.5295 14.6744V15.664C22.5295 15.664 22.5451 16.1505 22.7169 16.3613H21.7285C21.9014 16.1504 21.9159 15.664 21.9159 15.664V14.6744C21.9159 14.6744 21.4607 14.6153 21.2242 14.9031L21.2242 14.217ZM19.0487 14.3196C19.1178 14.3944 19.1859 14.4758 19.2517 14.5573C19.2673 14.5762 19.2818 14.593 19.2975 14.6153C19.3588 14.6956 19.4202 14.7826 19.4793 14.8697L19.5195 14.9288C19.5898 15.0359 19.6567 15.1463 19.7236 15.2613C20.335 16.3178 21.3123 16.9493 22.1792 16.9504C23.0483 16.9493 24.0245 16.3178 24.637 15.2613C24.7051 15.1441 24.7731 15.0303 24.8445 14.9232C24.9259 14.7984 25.0131 14.6774 25.1056 14.5606C25.1736 14.4758 25.2439 14.3933 25.3153 14.3174C25.3276 14.3063 25.3376 14.294 25.3499 14.2839C25.6623 13.9649 26.0316 13.7217 26.518 13.5867L26.3015 13.4606H26.2904L25.4291 12.9608L24.5466 12.4531L22.1859 13.7406L22.1792 13.735L22.1759 13.7406L19.8151 12.4531L18.9315 12.9608L18.0703 13.4606H18.0602L17.8427 13.5867C18.328 13.7205 18.6984 13.9615 19.0107 14.2817C19.0241 14.2929 19.033 14.3085 19.0487 14.3196ZM22.1792 6.27364C20.7177 6.27476 19.621 6.75448 19.3822 7.32012L22.1792 8.42464L24.9773 7.32012C24.7407 6.75448 23.644 6.27476 22.1792 6.27364ZM22.2093 35.5473H22.1535C21.2677 35.5528 20.046 35.371 19.4592 35.1981L18.7519 37.1159C19.2182 37.2821 20.798 37.6012 22.1825 37.6012C23.5648 37.6012 25.1457 37.2821 25.611 37.1159L24.9048 35.1992C24.3146 35.371 23.0951 35.5528 22.2093 35.5473ZM27.5609 33.6395C27.0343 33.9384 25.8595 34.387 25.1756 34.5944L25.7491 36.1786C26.8067 35.8886 27.6803 35.5505 28.401 35.1879L27.2095 34.7919L27.5609 33.6395ZM16.8005 33.6395L17.1531 34.7919L15.9604 35.188C16.68 35.5506 17.5569 35.8886 18.6112 36.1776L19.1858 34.5934C18.503 34.3859 17.326 33.9384 16.8005 33.6395ZM22.1789 4.44064C23.2823 4.44064 24.3622 4.70505 25.1945 5.16804C25.2704 4.91367 25.3764 4.60352 25.5203 4.27888L25.2057 4.31681L24.8765 4.35028L24.7371 4.05017L24.3154 3.16101L23.55 3.56043L23.2511 3.71216L23.0123 3.47787L22.1789 2.65227L21.3477 3.47787L21.1101 3.71216L20.8122 3.56043L20.0424 3.16101L19.6263 4.05017L19.4846 4.3514L19.1544 4.31681L18.842 4.27888C18.9859 4.60354 19.0908 4.91372 19.1678 5.16804C20.0023 4.70504 21.0822 4.44064 22.18 4.44064H22.1789ZM39.0085 14.7238C39.1524 14.7729 39.2975 14.7952 39.4414 14.7952C40.0662 14.7952 40.6686 14.3902 40.875 13.9284C40.875 13.9284 39.7315 13.8592 38.502 12.6085C38.1115 12.2046 37.6965 12.083 37.3417 12.083C36.7895 12.083 36.3745 12.3742 36.3745 12.3742C37.8605 13.1664 38.1629 14.4382 39.0085 14.7238ZM4.91971 14.7941C5.06475 14.7941 5.20978 14.7729 5.34923 14.7227C6.19715 14.4371 6.50283 13.1664 7.98551 12.3754C7.98551 12.3754 7.57051 12.0831 7.02159 12.0831C6.66458 12.0831 6.25067 12.2036 5.85795 12.6097C4.62963 13.8592 3.48715 13.9295 3.48715 13.9295C3.69243 14.3903 4.29599 14.7953 4.91967 14.7953L4.91971 14.7941ZM21.4281 9.85533V10.5024L21.3043 10.4444C21.2987 10.4399 21.1157 10.3998 20.8 10.1476C20.2767 9.74151 20.2667 9.36667 20.2667 9.36667L21.427 9.85535L21.4281 9.85533ZM21.9747 12.8866V8.86777L19.4221 7.99977L20.096 11.8935L21.9759 12.8865L21.9747 12.8866ZM22.9342 9.85533L24.0945 9.36665C24.0945 9.36665 24.0856 9.74152 23.5601 10.1476C23.2444 10.3986 23.0625 10.4399 23.0569 10.4444L22.9342 10.5013L22.9342 9.85533ZM24.2652 11.8948L24.9357 8.00101L22.3842 8.86789V12.8867L24.2652 11.8937L24.2652 11.8948ZM18.3644 22.2024C18.6132 22.2916 18.9144 22.3106 19.0695 22.3106C19.0751 22.2916 19.084 22.2682 19.0918 22.2392C19.1041 22.1946 19.1175 22.1477 19.1275 22.0986C19.171 21.8755 19.1855 21.6245 19.19 21.4616C19.0473 21.3768 18.9311 21.2539 18.8542 21.1068C18.7594 20.9071 18.6244 20.8134 18.4269 20.8134C18.1703 20.8134 17.8947 20.9696 17.7754 21.041C17.6817 21.5966 18.0911 22.1009 18.3645 22.2013L18.3644 22.2024ZM24.0116 20.0703C23.5386 20.5869 22.6092 21.4872 22.5646 21.5318L22.5088 21.5876L19.5746 21.5419C19.5722 21.7846 19.5407 22.0262 19.4809 22.2615L19.4575 22.3541L22.9461 22.9833C23.3087 22.7289 24.3072 21.9982 24.6955 21.7115C24.4132 21.2987 24.3865 20.8089 24.4501 20.4653C24.2826 20.3595 24.1343 20.2259 24.0116 20.0703Z" fill="#FFFFFE"/>
<path id="Vector_2" d="M28.4708 24.1824H15.8916V28.9228C15.8916 30.8618 17.2918 32.0745 19.3591 32.0745C21.085 32.0745 21.5401 32.1415 22.1817 32.7807C22.6246 32.3378 22.9905 32.1738 23.7436 32.1113L23.7603 32.0388L24.1564 30.8105C24.1341 30.7826 23.487 30.0452 23.487 30.0452C23.2304 30.1311 23.0139 30.1456 22.6502 30.1456C22.2787 30.1456 21.8581 30.1009 21.4018 30.0162C21.359 30.006 21.3153 30.0008 21.2713 30.0005C21.2155 30.0005 21.2122 30.005 21.1965 30.0329L21.1184 30.1634L20.9734 30.4022L20.7023 30.3386L19.4951 30.0541L19.3289 30.3274L19.3546 30.3575L19.5007 30.5193L19.436 30.7313C19.3468 31.0068 19.0589 31.3293 18.9708 31.4185L18.6695 31.7421L18.394 31.3951L18.1876 31.1351C17.97 30.8919 17.9198 30.5193 18.0425 30.1288C18.039 30.1314 18.0347 30.133 18.0303 30.1333L17.69 30.275L17.5372 29.9403L17.4289 29.7049C17.3251 29.464 17.3064 29.195 17.3759 28.9421C17.4455 28.6892 17.5992 28.4675 17.8116 28.3137L18.7823 27.7637L19.7083 27.9455C19.7306 27.8563 19.764 27.5394 19.7897 27.458C19.7718 27.4557 19.7551 27.4524 19.7373 27.4524L19.204 27.651L18.6908 27.2962C18.6908 27.2962 18.49 27.1021 18.6718 26.9079L19.1683 26.1526L17.9076 24.5684L19.8455 25.365L19.9749 25.2054L20.236 24.8908L20.5327 25.1742C20.6108 25.2505 20.665 25.3478 20.6889 25.4542C21.2222 25.6629 22.1795 26.2776 22.2643 27.2772L21.9653 27.3966V27.4044C22.0333 27.4858 22.0902 27.5193 22.1081 27.5226L23.4915 27.6587C23.5272 27.652 23.5696 27.6364 23.6187 27.623C23.7916 27.5639 24.0493 27.478 24.355 27.478C24.6049 27.478 24.8459 27.536 25.0769 27.6454C25.1628 27.6119 25.2665 27.5885 25.3892 27.5806L25.4562 27.5784C26.1959 27.5784 26.5641 28.1329 26.8597 28.5758C26.9087 28.6527 26.9578 28.7241 27.0092 28.7955C27.268 29.1615 27.606 29.6959 27.6194 29.7193L27.7723 29.9569L27.5848 30.1756C27.442 30.343 27.2245 30.5382 26.8541 30.5382C26.7702 30.5375 26.6865 30.5289 26.6042 30.5125C26.5283 30.498 26.4542 30.4752 26.3833 30.4445C26.3719 30.5232 26.3589 30.6017 26.3442 30.6799L26.1021 31.9484C27.5525 31.5914 28.474 30.4935 28.474 28.9227L28.4708 24.1824ZM15.8916 23.8008H25.676C25.1873 23.2943 25.1952 22.6551 25.319 22.2389C25.187 22.1755 25.0643 22.0944 24.9542 21.9979C24.5715 22.2802 23.4045 23.1314 23.1 23.3456L23.0342 23.3902L19.194 22.6941H19.1159C19.0245 22.6941 18.8895 22.6907 18.7422 22.6718C18.7264 22.7423 18.6906 22.8067 18.6389 22.8573C18.5873 22.9078 18.5221 22.9423 18.4513 22.9566C18.3805 22.9709 18.307 22.9643 18.2399 22.9377C18.1727 22.9112 18.1146 22.8657 18.0728 22.8068C18.0434 22.7665 18.0223 22.7209 18.0108 22.6724C17.9993 22.6239 17.9976 22.5736 18.0058 22.5245L18.0203 22.4408C17.6254 22.1619 17.2584 21.5371 17.4212 20.8789L17.4368 20.8097L17.4926 20.7696C17.5489 20.7311 17.607 20.6954 17.6667 20.6625L17.3878 20.6178C17.3382 20.6093 17.294 20.5818 17.2644 20.5412C17.2348 20.5006 17.2222 20.45 17.2293 20.4003C17.2472 20.2954 17.3443 20.2218 17.448 20.2407L18.1118 20.3456L18.1732 18.0016L19.1616 16.9529L19.7797 18.2549L19.1282 20.5107L19.715 20.6033C19.7652 20.6116 19.81 20.6393 19.8397 20.6805C19.8694 20.7217 19.8815 20.773 19.8735 20.8231C19.8663 20.8676 19.8434 20.9079 19.8091 20.937C19.7747 20.9661 19.731 20.9819 19.686 20.9815L19.6559 20.9804L19.1773 20.9023C19.184 20.9179 19.1929 20.9258 19.1996 20.9414C19.2529 21.0338 19.333 21.1077 19.4294 21.1534L22.3558 21.2013C22.4796 21.0797 22.7864 20.7785 23.1033 20.4594C22.8275 20.3582 22.5854 20.1821 22.4041 19.9509C22.2228 19.7198 22.1095 19.4427 22.0769 19.1507C21.6753 18.9789 21.3963 18.7223 21.2424 18.3876C21.0549 17.9726 21.1219 17.5576 21.1721 17.3557C20.7816 17.214 20.371 16.9529 19.9515 16.5357H15.5427C15.7324 17.0444 15.8919 17.5956 15.8919 18.1433V23.7997L15.8916 23.8008Z" fill="#FFE52B"/>
<path id="Vector_3" d="M22.1812 8.4264L19.3842 7.31964C19.6218 6.75512 20.7185 6.2754 22.1812 6.27428C23.6449 6.2754 24.7416 6.75512 24.9792 7.31964L22.1812 8.4264ZM24.2663 11.895L22.3864 12.8879V8.86712L24.9379 7.99912L24.2663 11.8929L24.2663 11.895ZM25.4311 12.9615L26.2901 13.4614H26.3024L26.5189 13.5874C26.0335 13.7213 25.662 13.9656 25.3508 14.2847L25.3173 14.3182C25.2439 14.3965 25.1736 14.4776 25.1065 14.5614L25.0674 14.6127C25.0005 14.6986 24.9369 14.7867 24.8777 14.8782L24.8454 14.924C24.773 15.0344 24.7042 15.1472 24.639 15.262C24.0254 16.3185 23.0492 16.95 22.1812 16.9523C21.3132 16.95 20.3359 16.3185 19.7245 15.262C19.6595 15.1493 19.5914 15.0385 19.5203 14.9295L19.4802 14.8704C19.4219 14.7843 19.3616 14.6995 19.2994 14.6161C19.2838 14.5937 19.2693 14.577 19.2537 14.558C19.1882 14.4767 19.1201 14.3974 19.0495 14.3204C19.035 14.3092 19.025 14.2947 19.0116 14.2825C18.6929 13.9487 18.2889 13.7083 17.8435 13.5874L18.0622 13.4614H18.0711L18.9335 12.9615L19.816 12.4539L22.1767 13.7414L22.1812 13.7369L22.1879 13.7414L24.5475 12.4539L25.4311 12.9615ZM28.8227 16.5361C28.6297 17.0448 28.4701 17.596 28.4701 18.1437L28.4724 21.6804C27.7349 21.5576 27.6468 20.7611 27.6445 20.7265L27.6311 20.5647L27.4716 20.5502C27.201 20.5264 26.9482 20.4055 26.7598 20.2099C26.3972 19.8473 26.3972 19.2605 26.3972 19.2549C26.3927 19.285 26 19.8351 26.4552 20.4375C26.6471 20.6919 26.926 20.8492 27.2853 20.9106C27.3701 21.3512 27.698 21.9749 28.4723 22.0708V23.8001H26.2957C25.2916 23.2412 25.7167 22.2572 25.7368 22.2148L25.8216 22.0274L25.6297 21.9549C24.5419 21.551 24.842 20.4643 24.8566 20.4175L24.9012 20.2591L24.7517 20.1899C23.8547 19.7727 23.9763 18.6503 23.9886 18.6035C23.7119 18.8277 23.6126 19.284 23.8023 19.7336C23.6996 19.8519 23.5613 19.9936 23.4107 20.1497C23.1486 20.0925 22.9127 19.9506 22.7393 19.746C22.5659 19.5413 22.4646 19.2853 22.4512 19.0173L22.4501 18.8857L22.3274 18.8388C21.9648 18.705 21.716 18.5019 21.5921 18.2308C21.4549 17.9307 21.5029 17.6172 21.5408 17.4644C21.7493 17.5076 21.9616 17.53 22.1745 17.5313H22.189C22.2972 17.5313 22.4032 17.5246 22.5081 17.5146C23.0883 17.4565 23.7353 17.2078 24.4114 16.5361L28.8227 16.5361ZM26.1027 31.9489L26.3459 30.6804L26.3849 30.4461C26.5351 30.5049 26.6945 30.5363 26.8557 30.5387C27.2261 30.5387 27.4426 30.3423 27.5865 30.1761L27.7717 29.9586L27.62 29.7198C27.6066 29.6964 27.2685 29.162 27.0097 28.796C26.9583 28.7238 26.9088 28.6501 26.8613 28.5751C26.5657 28.1333 26.1964 27.5789 25.4556 27.5789L25.3898 27.5811C25.2831 27.5868 25.1778 27.6083 25.0774 27.6447C24.8519 27.5369 24.6054 27.4805 24.3555 27.4796C24.1042 27.4856 23.8556 27.5339 23.6203 27.6224C23.5712 27.6369 23.5266 27.6525 23.492 27.6592L22.1086 27.5231C22.0907 27.5186 22.035 27.4852 21.9658 27.4048V27.397L22.2648 27.2777C22.1811 26.2781 21.2228 25.6633 20.6895 25.4547C20.6658 25.3478 20.6115 25.2501 20.5333 25.1735L20.2365 24.8913L19.9754 25.2048L19.8471 25.3654L17.9081 24.5678L19.1688 26.1531L18.6723 26.9084C18.4894 27.1014 18.6913 27.2967 18.6913 27.2967L19.2045 27.6514L19.7378 27.4517C19.7556 27.4517 19.7713 27.4562 19.7902 27.4584C19.7646 27.5399 19.7311 27.8578 19.7088 27.946L18.7839 27.7641L17.8133 28.3141C17.3123 28.6823 17.2443 29.2892 17.4306 29.7053L17.5377 29.9419L17.6905 30.2754L18.0308 30.1349C18.0364 30.1326 18.0408 30.1315 18.0442 30.1282C17.9215 30.5198 17.9717 30.8913 18.1892 31.1356L18.3956 31.3956L18.6701 31.7436L18.9713 31.419C19.0606 31.3297 19.3484 31.0073 19.4365 30.7306L19.5012 30.5198L19.3551 30.358L19.3305 30.3279L19.4957 30.0545L20.7028 30.3402L20.975 30.4026L21.1201 30.1628L21.1982 30.0334C21.2127 30.0055 21.216 30.001 21.2718 30.001C21.3153 30.001 21.3577 30.0055 21.4035 30.0166C21.8151 30.0979 22.2334 30.1408 22.653 30.1449C23.0133 30.1449 23.2309 30.1315 23.4875 30.0456C23.4875 30.0456 24.1357 30.782 24.158 30.8109L23.7608 32.0382L23.7429 32.1118C22.9921 32.1732 22.6262 32.3383 22.1833 32.7812C21.5407 32.1431 21.0865 32.075 19.3607 32.075C17.2934 32.075 15.8921 30.8623 15.8921 28.9222V24.183H28.4721L28.4743 28.9222C28.4743 30.4941 27.553 31.5908 26.1027 31.9489ZM18.3543 29.2691L18.4201 29.4331C18.3755 29.5759 17.8846 29.7789 17.8846 29.7789L17.7797 29.5458C17.7127 29.386 17.7013 29.2083 17.7472 29.0413C17.7931 28.8742 17.8937 28.7273 18.033 28.6242L18.8284 28.1389L19.673 28.3174C19.6562 28.5863 19.8169 28.7871 19.8169 28.7871L18.9333 28.6175L18.4034 28.9835C18.3141 29.0459 18.3074 29.162 18.3543 29.2691ZM25.9687 30.6079L25.6976 32.0259C25.5235 32.0504 25.3406 32.0638 25.1531 32.0705L25.4387 30.7094C25.5235 30.3033 24.4391 30.1773 23.9025 29.3818C23.6403 29.6763 23.1483 29.7645 22.6529 29.7645C22.2 29.7645 21.7493 29.6919 21.4737 29.6373C21.4073 29.6257 21.3402 29.6194 21.2729 29.6183C21.1133 29.6183 20.9694 29.6674 20.869 29.8359L20.7909 29.9697L19.3115 29.6205L18.9434 30.2308C18.892 30.3301 18.8876 30.4127 18.9713 30.5053L19.0717 30.6146C19.0025 30.8299 18.6946 31.1568 18.6946 31.1568L18.4748 30.8812C18.3007 30.6871 18.3297 30.3301 18.5105 29.9999L19.0973 29.0069L20.3502 29.1888L20.1561 28.7436C19.8939 28.1557 20.2933 27.4082 20.3357 26.9776C20.3212 27.1081 20.2018 27.1371 20.0635 27.1371C19.9363 27.1371 19.7957 27.1137 19.702 27.1137C19.6652 27.1137 19.6328 27.117 19.6161 27.1293L19.2769 27.3357L19.0092 27.0992C18.9768 27.0545 18.9668 26.9463 19.0449 26.866L19.6652 26.1698L18.9333 25.313L19.9575 25.8296L20.271 25.4491C20.3569 25.5339 20.319 25.7537 20.319 25.7537C20.6392 25.7626 21.5373 26.2591 21.5841 27.4194C21.5875 27.4551 21.5875 27.4941 21.5875 27.5332L21.6109 27.5711C21.6745 27.6592 21.8497 27.8835 22.0717 27.9036L23.4885 28.0441H23.4941C23.6503 28.0441 23.9594 27.8612 24.3554 27.8612C24.5729 27.8612 24.8128 27.917 25.0694 28.0787C25.0694 28.0787 25.1989 27.9761 25.4075 27.9649C25.4231 27.9627 25.4409 27.9627 25.4555 27.9627C26.0914 27.9627 26.3558 28.5384 26.6972 29.017C26.9538 29.3807 27.2963 29.9206 27.2963 29.9206C27.1702 30.0713 27.052 30.1549 26.8545 30.1549C26.7931 30.1552 26.7318 30.1492 26.6715 30.1371C25.991 30.011 25.8917 28.6086 25.5034 28.4971C25.4831 28.4917 25.462 28.4891 25.441 28.4893C25.316 28.4893 25.2613 28.6008 25.2613 28.6008C25.4398 29.0795 25.335 29.2724 25.5269 29.6418C25.6697 29.9151 25.9229 30.1394 26.0278 30.2464C26.0278 30.2464 25.9999 30.454 25.9687 30.609L25.9687 30.6079ZM24.6645 32.0805C24.4748 32.0805 24.2985 32.0828 24.1401 32.0894L24.5551 30.7942C24.6198 30.6145 24.2918 30.3836 24.1568 30.1806C24.361 30.31 24.8909 30.5933 25.1464 30.7049C24.9808 31.1617 24.8202 31.6203 24.6645 32.0805ZM18.4925 20.4085L18.5516 18.1571L19.0559 17.6227L19.3727 18.2876L18.7479 20.4487L18.4913 20.4096L18.4925 20.4085ZM18.8551 21.1069C18.9316 21.2536 19.0475 21.376 19.1898 21.4606C19.1859 21.6746 19.1653 21.8879 19.1284 22.0987C19.1172 22.1478 19.1061 22.1936 19.0916 22.2393C19.0849 22.2683 19.076 22.2917 19.0704 22.3107C18.9153 22.3107 18.613 22.2917 18.3664 22.2014C18.0919 22.101 17.6825 21.5967 17.7773 21.0411C17.8956 20.9686 18.17 20.8135 18.4277 20.8135C18.6252 20.8135 18.7603 20.9072 18.8551 21.1069ZM24.6967 21.7116C24.3095 21.9983 23.3099 22.7291 22.9473 22.9834L19.4575 22.3542L19.4821 22.2616C19.5267 22.0797 19.5747 21.8321 19.5769 21.5409L22.51 21.5877L22.5658 21.5319C22.6104 21.4873 23.5398 20.587 24.0128 20.0705C24.1255 20.2122 24.2661 20.346 24.4513 20.4643C24.3888 20.8102 24.4144 21.2988 24.6967 21.7116ZM19.9519 16.5364C20.3725 16.9536 20.7819 17.2136 21.1724 17.3564C21.1222 17.5572 21.0553 17.9745 21.2427 18.3884C21.3967 18.7231 21.6756 18.9796 22.0784 19.1514C22.123 19.5642 22.3829 20.1856 23.1047 20.4601C22.7879 20.7792 22.4799 21.0804 22.3572 21.2009L19.4298 21.1552C19.333 21.1089 19.2528 21.0342 19.1999 20.941C19.1943 20.9265 19.1843 20.9187 19.1776 20.903L19.6563 20.9811L19.6864 20.9823C19.7314 20.9826 19.775 20.9668 19.8094 20.9377C19.8438 20.9087 19.8666 20.8683 19.8738 20.8238C19.8819 20.7739 19.8699 20.7227 19.8404 20.6815C19.8109 20.6404 19.7664 20.6125 19.7165 20.604L19.1285 20.5103L19.7801 18.2556L19.1631 16.9536L18.1735 18.0023L18.1133 20.3463L17.4483 20.2403C17.3457 20.2203 17.2475 20.2961 17.2286 20.3999C17.2211 20.4501 17.2337 20.5012 17.2635 20.5423C17.2933 20.5834 17.338 20.6112 17.3881 20.6197L17.667 20.6621C17.5666 20.719 17.5008 20.7647 17.493 20.7703L17.4372 20.8104L17.4216 20.8796C17.2598 21.5378 17.6257 22.1626 18.0207 22.4415L18.0062 22.5252C17.9906 22.6256 18.0129 22.726 18.0731 22.8075C18.1074 22.8569 18.1533 22.8973 18.2068 22.9249C18.2603 22.9525 18.3197 22.9666 18.3799 22.9659C18.4645 22.9652 18.5463 22.9359 18.6121 22.8829C18.6779 22.8298 18.7239 22.7561 18.7425 22.6736C18.8898 22.6903 19.0248 22.6948 19.1163 22.6948H19.1955L23.0345 23.3898L23.1003 23.3463C23.406 23.1321 24.573 22.2809 24.9545 21.9986C25.0605 22.089 25.1777 22.1716 25.3194 22.2396C25.1955 22.6557 25.1877 23.295 25.6764 23.8015H15.892V18.1451C15.892 17.5963 15.7324 17.0451 15.5428 16.5364L19.9519 16.5364ZM19.4231 8.0016L21.9768 8.86848V12.8873L20.0969 11.8943L19.4231 8.00056V8.0016ZM25.6527 7.51628C25.6527 6.5356 24.0048 5.65312 22.1863 5.65312H22.1752C20.3567 5.65312 18.71 6.5356 18.71 7.51628L18.7457 7.75726L19.472 11.9333L18.7424 12.3572L16.8558 13.4617H16.8625C16.8625 13.4617 16.4386 13.6804 16.2411 13.8142C15.5226 14.3141 15.3697 15.0437 15.787 15.3449C15.8896 14.7503 16.3593 14.1288 17.2373 14.1288C17.8711 14.1288 18.353 14.4568 18.7435 14.9466C18.8439 15.0704 18.9387 15.2032 19.0268 15.3449C19.1362 15.5245 19.2466 15.683 19.3548 15.8347H14.4928C14.8498 16.5543 15.1901 17.3163 15.1901 18.1441V28.9237C15.1901 31.5321 17.1927 32.7771 19.3593 32.7771C21.0339 32.7771 21.2593 32.7012 22.183 33.6228C23.1023 32.7013 23.3288 32.7771 25.0046 32.7771C27.1723 32.7771 29.1718 31.5321 29.1718 28.9237V18.1441C29.1718 17.3162 29.512 16.5543 29.8713 15.8347H25.0069C25.1162 15.6829 25.2255 15.5245 25.3349 15.3449C25.4241 15.2032 25.519 15.0705 25.6171 14.9466C26.0099 14.4546 26.4918 14.1288 27.1255 14.1288C28.0035 14.1288 28.4721 14.7503 28.5759 15.3449C28.9931 15.0437 28.8425 14.314 28.1185 13.8142C27.9266 13.6804 27.5004 13.4617 27.5004 13.4617H27.5082L25.6171 12.3572L24.8919 11.9333L25.6171 7.75726L25.6527 7.51628ZM5.85867 12.6103C6.25139 12.2053 6.66527 12.0826 7.02231 12.0826C7.57119 12.0826 7.98734 12.376 7.98734 12.376C6.50355 13.1681 6.19783 14.4377 5.34995 14.7245C5.21186 14.7724 5.06657 14.7961 4.92043 14.7948C4.29675 14.7948 3.69319 14.3909 3.48791 13.9301C3.48791 13.9301 4.63031 13.8598 5.85867 12.6103ZM4.92039 15.3035C5.12455 15.3035 5.32427 15.2722 5.51391 15.2075C6.04495 15.0313 6.38415 14.6084 6.74115 14.1666C7.10597 13.717 7.51651 13.2071 8.2283 12.8278L8.96019 12.434L8.27962 11.9542C8.22384 11.9197 7.71399 11.5749 7.02231 11.5749C6.45555 11.5749 5.92895 11.8059 5.49499 12.2499C4.43847 13.331 3.49127 13.418 3.45667 13.4191L2.72031 13.4626L3.02153 14.1398C3.32723 14.8147 4.12607 15.3035 4.92039 15.3035ZM8.24838 21.2207C8.17029 19.3006 8.66114 17.7443 9.43098 16.4611C9.00258 17.7976 9.06058 19.4332 10.5243 20.9619C10.5243 20.9619 7.61471 17.4699 11.6813 13.8931C13.3079 12.5309 15.0874 11.6897 16.0025 11.0939C12.6934 12.1761 11.0769 10.9845 11.0769 10.9845C12.1334 11.9027 13.5023 11.8882 14.3513 11.7543C14.1215 11.867 13.8805 11.9842 13.6239 12.1236C10.8314 13.642 8.3247 16.1424 7.8939 19.6028V19.5772C7.24575 22.9754 5.80207 23.848 5.80207 23.848C6.95119 23.279 7.67415 21.7728 7.85039 21.2306C8.04228 24.2183 9.4971 26.291 11.1973 28.287C12.0809 29.3212 12.3911 30.3264 12.3911 30.3264C12.3911 30.3264 12.2193 29.1874 11.4528 28.2602C9.86862 26.3491 8.36022 23.9706 8.24866 21.2202L8.24838 21.2207ZM21.2244 14.2175V14.9047C21.4609 14.6158 21.9161 14.6749 21.9161 14.6749V15.6645C21.9161 15.6645 21.9016 16.1509 21.7287 16.3618H22.7171C22.5453 16.1509 22.5286 15.6645 22.5286 15.6645V14.6749C22.5286 14.6749 22.986 14.6158 23.2203 14.9047V14.2175H21.2233H21.2244ZM20.8005 10.1479C21.1162 10.3989 21.2992 10.4413 21.3047 10.4446L21.4275 10.5015V9.85558L20.2672 9.3669C20.2672 9.3669 20.2772 9.74179 20.8005 10.1479ZM23.5606 10.1479C24.0849 9.74176 24.0961 9.36692 24.0961 9.36692L22.9347 9.8556V10.5027L23.0574 10.4447C23.063 10.4413 23.2449 10.3989 23.5606 10.1479ZM37.3426 12.0835C37.6974 12.0835 38.1124 12.2051 38.5029 12.6101C39.7323 13.8596 40.8759 13.93 40.8759 13.93C40.6683 14.3907 40.0659 14.7957 39.4422 14.7957C39.2983 14.7957 39.1521 14.7734 39.0105 14.7232C38.1637 14.4376 37.8613 13.1668 36.3764 12.3758C36.3764 12.3758 36.7892 12.0835 37.3426 12.0835ZM36.1343 12.8266C36.845 13.2059 37.26 13.7157 37.6237 14.1665C37.9807 14.6072 38.3187 15.0311 38.8509 15.2074C39.0384 15.2721 39.2381 15.3033 39.4422 15.3033C40.2377 15.3033 41.0376 14.8147 41.3411 14.1386L41.6456 13.4625L40.9082 13.4179C40.8736 13.4179 39.9242 13.3297 38.8688 12.2498C38.4337 11.8058 37.9082 11.5737 37.3425 11.5737C36.6508 11.5737 36.1376 11.9196 36.0818 11.9553L35.4035 12.4339L36.1343 12.8266ZM36.4679 19.5774V19.603C36.0395 16.1423 33.5315 13.643 30.7387 12.1238C30.4821 11.9855 30.2422 11.8672 30.0113 11.7556C30.8603 11.8873 32.2292 11.9029 33.2868 10.9858C33.2868 10.9858 31.6692 12.1762 28.3592 11.0941C29.2741 11.6898 31.0558 12.531 32.6824 13.8921C36.7468 17.4711 33.8394 20.9609 33.8394 20.9609C35.3008 19.4336 35.3611 17.7981 34.9305 16.4617C35.7003 17.7447 36.1912 19.3011 36.1153 21.2213C36.0038 23.9714 34.4943 26.3497 32.9067 28.2613C32.1436 29.1873 31.974 30.3275 31.974 30.3275C31.974 30.3275 32.2819 29.3223 33.1644 28.2881C34.8658 26.2911 36.3217 24.2193 36.5114 21.2317C36.6876 21.775 37.4128 23.2811 38.5619 23.8491C38.5619 23.8491 37.1171 22.9766 36.4678 19.5783L36.4679 19.5774ZM14.3555 32.6706C10.1195 32.6706 10.2279 29.0324 10.2279 29.0324C10.2279 29.0324 9.93112 30.1101 8.75189 30.3902C8.60784 30.4264 8.45974 30.444 8.31121 30.4426C7.93188 30.4426 7.60165 30.3533 7.60165 30.3533C7.60165 30.3533 8.21861 29.0458 7.60389 27.2172C7.09737 25.6999 7.17997 24.5743 7.17997 24.5743C7.17997 24.5743 6.60989 25.4389 5.19409 25.4478H5.17959C4.00255 25.4478 3.48823 24.552 3.48823 24.552C6.31083 23.3772 6.03415 19.5872 6.03415 19.5872C6.03415 19.5872 5.66597 19.8616 4.95195 19.8884H4.87719C3.31971 19.8884 2.79203 18.2194 2.79203 18.2194H2.82439C3.11223 18.2194 5.42275 18.1524 7.05719 16.0695C8.13379 14.7006 9.01739 13.4968 10.7565 13.0237L10.9317 12.9925L10.9685 12.8173C11.0176 12.5518 10.8346 12.3008 10.4219 12.0319C8.01764 10.4544 9.64988 8.44289 9.64988 8.44289C9.64988 8.44289 10.3326 10.0505 11.8734 10.0505L11.985 10.0494C12.159 10.0405 12.3297 10.0327 12.4982 9.99698L12.7815 9.94231C12.7815 9.94231 12.342 8.74855 13.4019 7.65299C14.1984 6.82515 15.1657 6.68459 15.7247 6.68459C16.0092 6.68459 16.1843 6.72141 16.1843 6.72141C15.6555 7.41645 15.2717 8.57117 15.8831 9.28297C16.4141 9.89549 17.7072 9.92449 17.7072 10.836C17.7072 11.2231 17.3468 11.6738 16.7008 12.0788C14.754 13.306 12.8229 14.9349 12.0192 17.118C11.0174 19.8402 12.1487 21.6476 13.763 22.6852C13.763 22.6852 13.2554 23.1516 12.5213 23.2106C12.3774 23.2245 12.2329 23.2316 12.0884 23.2318C10.5398 23.2318 9.73883 22.5044 9.73883 22.5044C9.73883 22.5044 9.87271 23.5096 10.6738 24.4446C11.4213 25.3058 12.3974 25.8134 13.8869 25.8347C13.8869 25.8347 13.9348 26.5264 13.2755 27.1266C12.8527 27.5059 11.8787 27.6286 11.8787 27.6286C11.8787 27.6286 13.705 27.999 13.9058 30.6989C14.0152 32.1626 14.3856 32.6703 14.3856 32.6703L14.3555 32.6706ZM14.8051 32.3805C14.804 32.3749 14.5083 31.9119 14.4135 30.6624C14.3019 29.1652 13.7374 28.2905 13.1785 27.7885C13.3402 27.7126 13.4909 27.6178 13.6158 27.504C14.4358 26.7654 14.4012 25.8975 14.3956 25.8015L14.3644 25.3329L13.8947 25.3263C12.643 25.3062 11.7694 24.9313 11.061 24.1079C10.9082 23.9297 10.7723 23.7377 10.6548 23.5345C11.0453 23.6539 11.5228 23.742 12.0885 23.742C12.2391 23.742 12.3975 23.7331 12.5638 23.7219C13.1332 23.6651 13.6716 23.4354 14.1067 23.0637L14.5943 22.6141L14.0387 22.2571C12.7936 21.4594 11.5207 19.9477 12.4991 17.2959C13.1317 15.5722 14.5943 14.0114 16.9727 12.5139C17.776 12.0062 18.2155 11.4071 18.2155 10.8359C18.2155 9.95344 17.4792 9.60536 16.9392 9.35656C16.6759 9.23049 16.4015 9.10554 16.2687 8.95044C15.8504 8.46512 16.2018 7.5358 16.5911 7.03148L17.0887 6.37884L16.2821 6.21931C16.2598 6.21595 16.0479 6.17691 15.7243 6.17691C15.1229 6.17691 13.9727 6.32307 13.0356 7.29703C12.2535 8.10699 12.1509 8.96943 12.191 9.52611C12.1152 9.53281 12.0393 9.53615 11.959 9.5395H11.8731C10.6949 9.5395 10.1393 8.28998 10.1181 8.24198L9.78679 7.46102L9.25127 8.11926C9.22115 8.15942 8.43683 9.13674 8.62871 10.3629C8.75478 11.1773 9.26575 11.8801 10.1427 12.4581C10.2386 12.5194 10.3044 12.5719 10.3524 12.6154C8.69678 13.1542 7.77414 14.3357 6.79906 15.5774L6.65849 15.7537C5.16797 17.6537 3.05813 17.7106 2.80613 17.7106L2.08765 17.6882L2.30631 18.3732C2.33197 18.4558 2.96787 20.4004 4.87679 20.4004L4.96828 20.397C5.17021 20.3915 5.35207 20.3636 5.51272 20.3323C5.43462 21.3922 5.04416 23.3524 3.29032 24.081L2.7548 24.3041L3.04487 24.8096C3.07165 24.8553 3.72319 25.9564 5.19811 25.9564C5.72599 25.9617 6.24732 25.8392 6.71763 25.5994C6.77453 26.0791 6.89279 26.6939 7.12263 27.3823C7.65591 28.9732 7.15945 30.09 7.14048 30.1346L6.87719 30.6902L7.47183 30.8475C7.51199 30.8586 7.87794 30.9501 8.31078 30.9501C8.90637 30.9516 9.48275 30.7395 9.93518 30.3521C10.097 30.8508 10.3747 31.4142 10.8556 31.9129C11.6745 32.7552 12.8515 33.1803 14.3889 33.1803L15.3204 33.168L14.8051 32.3805ZM19.9203 26.2389C19.9033 26.2375 19.8862 26.2396 19.8701 26.2449C19.8539 26.2503 19.839 26.2588 19.8262 26.2701C19.8134 26.2813 19.803 26.295 19.7956 26.3104C19.7882 26.3257 19.7839 26.3424 19.7831 26.3594C19.7817 26.3764 19.7838 26.3935 19.7892 26.4097C19.7947 26.4258 19.8033 26.4407 19.8147 26.4535C19.8261 26.4662 19.8399 26.4765 19.8554 26.4837C19.8708 26.4909 19.8876 26.4949 19.9047 26.4955C19.9388 26.4976 19.9723 26.4864 19.9982 26.464C20.0241 26.4417 20.0402 26.4101 20.043 26.3761C20.0448 26.3417 20.033 26.3079 20.01 26.2822C19.987 26.2565 19.9547 26.2409 19.9203 26.2389ZM25.7507 36.1793L25.1761 34.5951C25.86 34.3865 27.0348 33.938 27.5625 33.6401L27.2111 34.7926L28.4015 35.1886C27.6808 35.5501 26.8083 35.8882 25.7507 36.1782L25.7507 36.1793ZM22.1828 37.6018C20.7983 37.6018 19.2185 37.2827 18.7522 37.1164L19.4595 35.1997C20.0464 35.3715 21.2669 35.5534 22.1538 35.5478H22.2096C23.0954 35.5534 24.3149 35.3704 24.9051 35.1997L25.6113 37.1164C25.1449 37.2838 23.5652 37.6018 22.1828 37.6018ZM15.962 35.1886L17.1536 34.7925L16.801 33.64C17.3265 33.9379 18.5046 34.3876 19.1863 34.595L18.6117 36.1792C17.5575 35.8892 16.6816 35.5501 15.962 35.1886ZM28.4552 34.8372L27.73 34.5583L27.9309 33.8085L28.1506 32.9908C28.1506 32.9908 26.8676 33.6892 25.0569 34.2125C24.5437 34.3597 24.1555 34.4278 24.1555 34.4278V34.9845C24.1555 34.9845 23.1871 35.1518 22.2098 35.1518H22.154C21.1745 35.1518 20.2083 34.9845 20.2083 34.9845V34.4267C20.2083 34.4267 19.819 34.3597 19.3058 34.2125C17.4973 33.6881 16.2143 32.9908 16.2143 32.9908L16.4307 33.8085L16.636 34.5583L15.9086 34.8372L15.102 35.1384C16.0257 35.5858 17.3065 36.2362 18.4779 36.5575L18.2024 37.3139C18.2024 37.3139 19.6884 37.9923 22.1642 37.999V38H22.1976V37.999C24.6766 37.9923 26.1627 37.3139 26.1627 37.3139L25.8838 36.5575C27.0563 36.2362 28.3393 35.5869 29.2586 35.1384L28.4552 34.8372ZM19.156 4.31597L19.4852 4.35167L19.6269 4.05045L20.0419 3.16129L20.8117 3.56071L21.1106 3.71355L22.1794 2.65143L23.0128 3.47703L23.2516 3.71355L23.5506 3.56071L24.3159 3.16129L24.7376 4.05045L24.8771 4.35167L25.2062 4.31597L25.5208 4.27916C25.3769 4.60381 25.2709 4.91288 25.1939 5.16944C24.3628 4.7042 23.2828 4.44092 22.1806 4.44092C21.0827 4.44092 20.0028 4.70421 19.1683 5.16944C19.0783 4.8662 18.9695 4.56887 18.8425 4.27916L19.1549 4.31597H19.156ZM22.1795 4.90393C23.6555 4.90393 24.8347 5.39481 25.4874 5.91581C25.4874 5.91581 25.6815 4.74773 26.342 3.71797L25.1538 3.85185L24.5324 2.52977L23.3386 3.14673L22.1795 1.99986L21.0248 3.14673L19.8288 2.52977L19.2084 3.85297L18.0203 3.71687C18.6818 4.74775 18.8749 5.91471 18.8749 5.91471C19.5309 5.39367 20.7068 4.90393 22.1795 4.90393ZM40.8759 24.5515C40.8759 24.5515 40.3627 25.4474 39.1845 25.4474H39.17C37.7554 25.4384 37.1841 24.5738 37.1841 24.5738C37.1841 24.5738 37.2667 25.6984 36.758 27.2168C36.1444 29.0464 36.7624 30.3518 36.7624 30.3518C36.7624 30.3518 36.4322 30.4421 36.0518 30.4421C35.9067 30.4421 35.755 30.4276 35.6111 30.3897C34.4296 30.1097 34.1351 29.0319 34.1351 29.0319C34.1351 29.0319 34.2444 32.6701 30.0083 32.6701H29.9748C29.9748 32.6701 30.3486 32.1625 30.459 30.6987C30.6598 27.9989 32.4851 27.6273 32.4851 27.6273C32.4851 27.6273 31.5111 27.5046 31.0883 27.1264C30.4289 26.5273 30.4746 25.8345 30.4746 25.8345C31.9652 25.8133 32.9425 25.3057 33.6866 24.4433C34.1662 23.8915 34.4897 23.2217 34.6238 22.5031C34.6238 22.5031 33.8228 23.2317 32.2731 23.2317C32.137 23.2317 31.992 23.225 31.8425 23.2105C31.1084 23.1513 30.6019 22.6839 30.6019 22.6839C32.2151 21.6474 33.3464 19.8389 32.3434 17.1167C31.5401 14.9356 29.6078 13.3057 27.6634 12.0783C27.0163 11.6733 26.6549 11.2225 26.6549 10.8354C26.6549 9.92395 27.949 9.89495 28.4801 9.28243C29.0937 8.57063 28.7088 7.41595 28.1777 6.72087C28.1777 6.72087 28.3562 6.68405 28.6385 6.68405C29.1985 6.68405 30.1669 6.82463 30.9635 7.65245C32.02 8.74805 31.5816 9.94177 31.5816 9.94177L31.865 9.99756C32.0345 10.0321 32.203 10.0399 32.3782 10.0489L32.492 10.05C34.0282 10.05 34.7144 8.44124 34.7144 8.44124C34.7144 8.44124 36.3477 10.4539 33.9434 12.0314C33.5296 12.3003 33.3466 12.5513 33.3946 12.8168L33.4325 12.992L33.6032 13.0221C35.3458 13.4962 36.2283 14.7012 37.3051 16.069C38.9406 18.1519 41.2546 18.2188 41.5391 18.2188H41.5703C41.5703 18.2188 41.0426 19.889 39.4863 19.889C39.4606 19.889 39.4383 19.889 39.4126 19.8868C38.6986 19.8611 38.3304 19.5866 38.3304 19.5866C38.3304 19.5866 38.0526 23.3764 40.8764 24.5514L40.8759 24.5515ZM39.4858 20.3999C41.3936 20.3999 42.0317 18.4554 42.0585 18.3728L42.2705 17.6867L41.5564 17.709H41.5544C41.3012 17.709 39.197 17.6532 37.7053 15.7532L37.5636 15.577C36.5885 14.3353 35.6637 13.1538 34.0103 12.6149C34.0763 12.557 34.1468 12.5044 34.2211 12.4576C35.098 11.8797 35.609 11.1779 35.7361 10.3624C35.9247 9.13627 35.1426 8.15899 35.1091 8.11879L34.5781 7.46055L34.2456 8.24151C34.2233 8.28948 33.6655 9.53903 32.4918 9.53903H32.4048C32.3245 9.53567 32.2475 9.53233 32.1716 9.52564C32.2129 8.9678 32.1114 8.10652 31.3304 7.29656C30.3922 6.32256 29.2408 6.17644 28.6384 6.17644C28.3171 6.17644 28.1028 6.2166 28.0794 6.21883L27.2773 6.37837L27.7715 7.03101C28.1598 7.53529 28.5123 8.46465 28.0951 8.94997C27.9612 9.10616 27.6867 9.22999 27.4246 9.35609C26.8846 9.60488 26.146 9.95297 26.146 10.8354C26.146 11.4066 26.5889 12.0058 27.3922 12.5134C29.7663 14.0095 31.2323 15.5714 31.865 17.2954C32.8445 19.9462 31.5671 21.459 30.3254 22.2554L29.7698 22.6135L30.2573 23.062C30.3232 23.12 30.9178 23.6455 31.7981 23.7214C31.9654 23.7325 32.125 23.7414 32.2745 23.7414C32.8379 23.7414 33.3187 23.6522 33.7092 23.5339C33.5925 23.7376 33.4565 23.9297 33.3031 24.1074C32.5946 24.9307 31.7221 25.3056 30.467 25.3257L30.0007 25.3324L29.965 25.8009C29.9605 25.8958 29.9259 26.7649 30.7459 27.5034C30.872 27.6172 31.0237 27.7121 31.1832 27.7879C30.6254 28.29 30.0609 29.1646 29.9516 30.6618C29.859 31.9114 29.5611 32.3744 29.5577 32.3799L29.0423 33.1676L29.9738 33.1798C31.5123 33.1798 32.6905 32.7559 33.506 31.9125C33.9284 31.4695 34.2437 30.9355 34.4275 30.3517C34.8806 30.738 35.4565 30.95 36.0519 30.9497C36.487 30.9497 36.8507 30.8571 36.8909 30.8481L37.4855 30.6897L37.2233 30.1341C37.2033 30.0895 36.7079 28.9738 37.2412 27.3818C37.471 26.6934 37.5882 26.0776 37.6451 25.5968C38.0199 25.7931 38.5209 25.9538 39.1691 25.956C40.6417 25.956 41.29 24.8548 41.319 24.8091L41.609 24.3026L41.0713 24.0817C39.3175 23.3521 38.9292 21.393 38.8511 20.333C39.0107 20.3631 39.1914 20.391 39.3956 20.3966L39.4858 20.3999Z" fill="black"/>
<path id="Vector_4" d="M56.896 25.4824H60.2429V17.6952H64.8393V14.8614H52.2993V17.6952H56.8957L56.896 25.4824ZM74.9919 14.8612L69.4135 21.042V14.8612H66.1781V25.4824H69.0342L74.6126 19.3016V25.4824H77.848V14.8612H74.9919ZM83.5343 21.5328H88.7331V25.4822H91.9685V14.861H88.7331V18.7435H83.5343V14.861H80.2989V25.4822H83.5343V21.5328ZM100.979 25.4822C101.715 25.4822 102.384 25.4153 103.009 25.2368C104.683 24.7682 105.776 23.4071 105.776 21.5551C105.776 19.7924 104.839 18.5652 103.344 18.0073C102.63 17.7396 101.782 17.7172 100.979 17.7172H97.6541V14.8612H94.4187V25.4824L100.979 25.4822ZM97.6541 20.2162H100.421C100.867 20.2162 101.291 20.2162 101.67 20.3501C102.206 20.5286 102.518 20.9749 102.518 21.5104C102.518 22.0682 102.206 22.5368 101.693 22.7599C101.336 22.9161 100.979 22.9161 100.421 22.9161H97.6541V20.2162ZM110.685 21.4658H111.577L115.438 25.4822H119.744L114.366 19.9486L119.543 14.8614H115.482L111.578 18.8554H110.685V14.8614H107.45V25.4826H110.685L110.685 21.4658ZM126.401 14.571C122.05 14.571 119.44 17.0254 119.44 20.1938C119.44 23.3621 122.05 25.8166 126.401 25.8166C130.73 25.8166 133.34 23.3621 133.34 20.1938C133.34 17.0254 130.73 14.571 126.401 14.571ZM126.401 23.2286C124.237 23.2286 122.853 21.9344 122.853 20.194C122.853 18.4535 124.237 17.1817 126.401 17.1817C128.543 17.1817 129.949 18.4535 129.949 20.194C129.949 21.9344 128.543 23.2286 126.401 23.2286ZM144.116 15.3298V14.2587H140.88V15.3298C136.819 15.419 134.387 17.1371 134.387 20.1718C134.387 23.2064 136.819 24.7906 140.88 24.8798V25.9508H144.116V24.8798C148.199 24.7905 150.631 23.2063 150.631 20.1718C150.631 17.1372 148.199 15.419 144.116 15.3298ZM140.88 22.6038C138.649 22.5145 137.667 21.5997 137.667 20.1716C137.667 18.7436 138.649 17.7172 140.88 17.628V22.6038ZM144.116 22.6038V17.6278C146.369 17.717 147.329 18.7434 147.329 20.1714C147.329 21.5995 146.369 22.5145 144.116 22.6038ZM161.395 15.3298V14.2587H158.159V15.3298C154.099 15.419 151.666 17.1371 151.666 20.1718C151.666 23.2064 154.098 24.7906 158.159 24.8798V25.9508H161.395V24.8798C165.478 24.7905 167.91 23.2063 167.91 20.1718C167.91 17.1372 165.478 15.419 161.395 15.3298ZM158.159 22.6038C155.928 22.5145 154.946 21.5997 154.946 20.1716C154.946 18.7436 155.928 17.7172 158.159 17.628V22.6038ZM161.395 22.6038V17.6278C163.649 17.717 164.608 18.7434 164.608 20.1714C164.608 21.5995 163.648 22.5145 161.395 22.6038Z" fill="black"/>
</g>
</svg>
