<svg width="112" height="40" viewBox="0 0 112 40" fill="none" xmlns="http://www.w3.org/2000/svg">
<g id="VTB_Logo_2018 1" clip-path="url(#clip0_149_12823)">
<g id="vtb_ru">
<g id="Group-6">
<g id="Group-Copy">
<g id="Group-2">
<path id="Fill-1" fill-rule="evenodd" clip-rule="evenodd" d="M7.81898 0L5.92366 5.19165H32.1886L34.0839 0H7.81898ZM4.97541 7.78629L3.08009 12.9768H29.345L31.2403 7.78629H4.97541ZM2.13775 15.5726L0.242432 20.7631H26.5073L28.4015 15.5726H2.13775Z" fill="#009FDF"/>
<g id="Mask group">
<mask id="mask0_149_12823" style="mask-type:luminance" maskUnits="userSpaceOnUse" x="39" y="7" width="73" height="33">
<g id="Group">
<path id="Vector" d="M39.6482 39.6882H111.545V7.88611H39.6482V39.6882Z" fill="white"/>
</g>
</mask>
<g mask="url(#mask0_149_12823)">
<path id="Fill-2" fill-rule="evenodd" clip-rule="evenodd" d="M56.08 22.7415V22.851C57.2803 23.2916 58.4269 24.062 59.0276 24.5567C60.8836 26.0975 61.703 28.133 61.703 30.774C61.703 35.1219 59.4098 38.2577 55.6429 39.2484C54.4963 39.5782 53.296 39.6889 51.0566 39.6889H39.6482V7.88611H49.7476C51.8221 7.88611 53.241 7.99565 54.4963 8.32547C58.1546 9.31615 60.5564 11.8476 60.5564 15.8633C60.5564 18.0096 59.792 19.826 58.5367 21.0358C57.9909 21.5859 57.2266 22.2467 56.08 22.7415ZM45.9806 26.0975V34.4611H50.3483C51.6573 34.4611 52.8588 34.3516 53.7331 33.5258C54.6062 32.7 54.9884 31.6552 54.9884 30.2793C54.9884 29.2345 54.7148 28.2438 54.169 27.5287C53.241 26.3732 52.0945 26.0975 50.1298 26.0975H45.9806ZM45.9257 20.5952H49.4741C50.5657 20.5952 51.1115 20.5952 51.6573 20.4303C53.1323 19.9897 54.0603 18.6704 54.0603 16.854C54.0603 14.7089 53.0774 13.7724 51.6573 13.333C51.0566 13.1681 50.457 13.1128 49.2555 13.1128H45.9257V20.5952ZM71.2016 39.6889V13.2223H62.0851V7.88611H87.416L85.6149 13.2223H77.534V39.6889H71.2016ZM89.3807 39.6889V7.88611H109.908L108.107 13.2223H95.6594V20.2654H100.737C104.831 20.2654 106.96 21.2561 108.434 22.5212C109.581 23.5119 111.545 25.7123 111.545 30.0602C111.545 34.3516 109.526 36.7169 107.833 37.9279C105.869 39.3025 103.794 39.6889 99.5899 39.6889H89.3807ZM95.6594 34.3516H100.409C102.21 34.3516 103.302 33.911 104.066 32.9203C104.449 32.4256 104.994 31.5444 104.994 29.8941C104.994 28.2438 104.449 27.0882 103.357 26.2624C102.702 25.7677 101.828 25.4932 100.354 25.4932H95.6594V34.3516Z" fill="#0A2973"/>
</g>
</g>
</g>
</g>
</g>
</g>
</g>
<defs>
<clipPath id="clip0_149_12823">
<rect width="111.515" height="40" fill="white" transform="translate(0.242432)"/>
</clipPath>
</defs>
</svg>
